<?xml version="1.0" encoding="utf-8" standalone="no"?>
<!DOCTYPE svg PUBLIC "-//W3C//DTD SVG 1.1//EN"
  "http://www.w3.org/Graphics/SVG/1.1/DTD/svg11.dtd">
<svg xmlns:xlink="http://www.w3.org/1999/xlink" width="720pt" height="576pt" viewBox="0 0 720 576" xmlns="http://www.w3.org/2000/svg" version="1.1">
 <metadata>
  <rdf:RDF xmlns:dc="http://purl.org/dc/elements/1.1/" xmlns:cc="http://creativecommons.org/ns#" xmlns:rdf="http://www.w3.org/1999/02/22-rdf-syntax-ns#">
   <cc:Work>
    <dc:type rdf:resource="http://purl.org/dc/dcmitype/StillImage"/>
    <dc:date>2026-03-29T13:51:41.368737</dc:date>
    <dc:format>image/svg+xml</dc:format>
    <dc:creator>
     <cc:Agent>
      <dc:title>Matplotlib v3.10.8, https://matplotlib.org/</dc:title>
     </cc:Agent>
    </dc:creator>
   </cc:Work>
  </rdf:RDF>
 </metadata>
 <defs>
  <style type="text/css">*{stroke-linejoin: round; stroke-linecap: butt}</style>
 </defs>
 <g id="figure_1">
  <g id="patch_1">
   <path d="M 0 576 
L 720 576 
L 720 0 
L 0 0 
z
" style="fill: #ffffff"/>
  </g>
  <g id="axes_1">
   <g id="patch_2">
    <path d="M 359.06 528.60375 
L 707.04 528.60375 
L 707.04 27.65625 
L 359.06 27.65625 
z
" style="fill: #ffffff"/>
   </g>
   <g id="matplotlib.axis_1">
    <g id="xtick_1">
     <g id="line2d_1">
      <path d="M 359.06 528.60375 
L 359.06 27.65625 
" clip-path="url(#p470759c901)" style="fill: none; stroke: #cccccc; stroke-linecap: round"/>
     </g>
     <g id="text_1">
      <!-- 0.00 -->
      <g style="fill: #262626" transform="translate(348.356484 545.977344) scale(0.11 -0.11)">
       <defs>
        <path id="ArialMT-30" d="M 266 2259 
Q 266 3072 433 3567 
Q 600 4063 929 4331 
Q 1259 4600 1759 4600 
Q 2128 4600 2406 4451 
Q 2684 4303 2865 4023 
Q 3047 3744 3150 3342 
Q 3253 2941 3253 2259 
Q 3253 1453 3087 958 
Q 2922 463 2592 192 
Q 2263 -78 1759 -78 
Q 1097 -78 719 397 
Q 266 969 266 2259 
z
M 844 2259 
Q 844 1131 1108 757 
Q 1372 384 1759 384 
Q 2147 384 2411 759 
Q 2675 1134 2675 2259 
Q 2675 3391 2411 3762 
Q 2147 4134 1753 4134 
Q 1366 4134 1134 3806 
Q 844 3388 844 2259 
z
" transform="scale(0.015625)"/>
        <path id="ArialMT-2e" d="M 581 0 
L 581 641 
L 1222 641 
L 1222 0 
L 581 0 
z
" transform="scale(0.015625)"/>
       </defs>
       <use xlink:href="#ArialMT-30"/>
       <use xlink:href="#ArialMT-2e" transform="translate(55.615234 0)"/>
       <use xlink:href="#ArialMT-30" transform="translate(83.398438 0)"/>
       <use xlink:href="#ArialMT-30" transform="translate(139.013672 0)"/>
      </g>
     </g>
    </g>
    <g id="xtick_2">
     <g id="line2d_2">
      <path d="M 423.057858 528.60375 
L 423.057858 27.65625 
" clip-path="url(#p470759c901)" style="fill: none; stroke: #cccccc; stroke-linecap: round"/>
     </g>
     <g id="text_2">
      <!-- 0.05 -->
      <g style="fill: #262626" transform="translate(412.354343 545.977344) scale(0.11 -0.11)">
       <defs>
        <path id="ArialMT-35" d="M 266 1200 
L 856 1250 
Q 922 819 1161 601 
Q 1400 384 1738 384 
Q 2144 384 2425 690 
Q 2706 997 2706 1503 
Q 2706 1984 2436 2262 
Q 2166 2541 1728 2541 
Q 1456 2541 1237 2417 
Q 1019 2294 894 2097 
L 366 2166 
L 809 4519 
L 3088 4519 
L 3088 3981 
L 1259 3981 
L 1013 2750 
Q 1425 3038 1878 3038 
Q 2478 3038 2890 2622 
Q 3303 2206 3303 1553 
Q 3303 931 2941 478 
Q 2500 -78 1738 -78 
Q 1113 -78 717 272 
Q 322 622 266 1200 
z
" transform="scale(0.015625)"/>
       </defs>
       <use xlink:href="#ArialMT-30"/>
       <use xlink:href="#ArialMT-2e" transform="translate(55.615234 0)"/>
       <use xlink:href="#ArialMT-30" transform="translate(83.398438 0)"/>
       <use xlink:href="#ArialMT-35" transform="translate(139.013672 0)"/>
      </g>
     </g>
    </g>
    <g id="xtick_3">
     <g id="line2d_3">
      <path d="M 487.055716 528.60375 
L 487.055716 27.65625 
" clip-path="url(#p470759c901)" style="fill: none; stroke: #cccccc; stroke-linecap: round"/>
     </g>
     <g id="text_3">
      <!-- 0.10 -->
      <g style="fill: #262626" transform="translate(476.352201 545.977344) scale(0.11 -0.11)">
       <defs>
        <path id="ArialMT-31" d="M 2384 0 
L 1822 0 
L 1822 3584 
Q 1619 3391 1289 3197 
Q 959 3003 697 2906 
L 697 3450 
Q 1169 3672 1522 3987 
Q 1875 4303 2022 4600 
L 2384 4600 
L 2384 0 
z
" transform="scale(0.015625)"/>
       </defs>
       <use xlink:href="#ArialMT-30"/>
       <use xlink:href="#ArialMT-2e" transform="translate(55.615234 0)"/>
       <use xlink:href="#ArialMT-31" transform="translate(83.398438 0)"/>
       <use xlink:href="#ArialMT-30" transform="translate(139.013672 0)"/>
      </g>
     </g>
    </g>
    <g id="xtick_4">
     <g id="line2d_4">
      <path d="M 551.053575 528.60375 
L 551.053575 27.65625 
" clip-path="url(#p470759c901)" style="fill: none; stroke: #cccccc; stroke-linecap: round"/>
     </g>
     <g id="text_4">
      <!-- 0.15 -->
      <g style="fill: #262626" transform="translate(540.350059 545.977344) scale(0.11 -0.11)">
       <use xlink:href="#ArialMT-30"/>
       <use xlink:href="#ArialMT-2e" transform="translate(55.615234 0)"/>
       <use xlink:href="#ArialMT-31" transform="translate(83.398438 0)"/>
       <use xlink:href="#ArialMT-35" transform="translate(139.013672 0)"/>
      </g>
     </g>
    </g>
    <g id="xtick_5">
     <g id="line2d_5">
      <path d="M 615.051433 528.60375 
L 615.051433 27.65625 
" clip-path="url(#p470759c901)" style="fill: none; stroke: #cccccc; stroke-linecap: round"/>
     </g>
     <g id="text_5">
      <!-- 0.20 -->
      <g style="fill: #262626" transform="translate(604.347917 545.977344) scale(0.11 -0.11)">
       <defs>
        <path id="ArialMT-32" d="M 3222 541 
L 3222 0 
L 194 0 
Q 188 203 259 391 
Q 375 700 629 1000 
Q 884 1300 1366 1694 
Q 2113 2306 2375 2664 
Q 2638 3022 2638 3341 
Q 2638 3675 2398 3904 
Q 2159 4134 1775 4134 
Q 1369 4134 1125 3890 
Q 881 3647 878 3216 
L 300 3275 
Q 359 3922 746 4261 
Q 1134 4600 1788 4600 
Q 2447 4600 2831 4234 
Q 3216 3869 3216 3328 
Q 3216 3053 3103 2787 
Q 2991 2522 2730 2228 
Q 2469 1934 1863 1422 
Q 1356 997 1212 845 
Q 1069 694 975 541 
L 3222 541 
z
" transform="scale(0.015625)"/>
       </defs>
       <use xlink:href="#ArialMT-30"/>
       <use xlink:href="#ArialMT-2e" transform="translate(55.615234 0)"/>
       <use xlink:href="#ArialMT-32" transform="translate(83.398438 0)"/>
       <use xlink:href="#ArialMT-30" transform="translate(139.013672 0)"/>
      </g>
     </g>
    </g>
    <g id="xtick_6">
     <g id="line2d_6">
      <path d="M 679.049291 528.60375 
L 679.049291 27.65625 
" clip-path="url(#p470759c901)" style="fill: none; stroke: #cccccc; stroke-linecap: round"/>
     </g>
     <g id="text_6">
      <!-- 0.25 -->
      <g style="fill: #262626" transform="translate(668.345776 545.977344) scale(0.11 -0.11)">
       <use xlink:href="#ArialMT-30"/>
       <use xlink:href="#ArialMT-2e" transform="translate(55.615234 0)"/>
       <use xlink:href="#ArialMT-32" transform="translate(83.398438 0)"/>
       <use xlink:href="#ArialMT-35" transform="translate(139.013672 0)"/>
      </g>
     </g>
    </g>
    <g id="text_7">
     <!-- Importancia -->
     <g style="fill: #262626" transform="translate(501.704687 560.752969) scale(0.12 -0.12)">
      <defs>
       <path id="ArialMT-49" d="M 597 0 
L 597 4581 
L 1203 4581 
L 1203 0 
L 597 0 
z
" transform="scale(0.015625)"/>
       <path id="ArialMT-6d" d="M 422 0 
L 422 3319 
L 925 3319 
L 925 2853 
Q 1081 3097 1340 3245 
Q 1600 3394 1931 3394 
Q 2300 3394 2536 3241 
Q 2772 3088 2869 2813 
Q 3263 3394 3894 3394 
Q 4388 3394 4653 3120 
Q 4919 2847 4919 2278 
L 4919 0 
L 4359 0 
L 4359 2091 
Q 4359 2428 4304 2576 
Q 4250 2725 4106 2815 
Q 3963 2906 3769 2906 
Q 3419 2906 3187 2673 
Q 2956 2441 2956 1928 
L 2956 0 
L 2394 0 
L 2394 2156 
Q 2394 2531 2256 2718 
Q 2119 2906 1806 2906 
Q 1569 2906 1367 2781 
Q 1166 2656 1075 2415 
Q 984 2175 984 1722 
L 984 0 
L 422 0 
z
" transform="scale(0.015625)"/>
       <path id="ArialMT-70" d="M 422 -1272 
L 422 3319 
L 934 3319 
L 934 2888 
Q 1116 3141 1344 3267 
Q 1572 3394 1897 3394 
Q 2322 3394 2647 3175 
Q 2972 2956 3137 2557 
Q 3303 2159 3303 1684 
Q 3303 1175 3120 767 
Q 2938 359 2589 142 
Q 2241 -75 1856 -75 
Q 1575 -75 1351 44 
Q 1128 163 984 344 
L 984 -1272 
L 422 -1272 
z
M 931 1641 
Q 931 1000 1190 694 
Q 1450 388 1819 388 
Q 2194 388 2461 705 
Q 2728 1022 2728 1688 
Q 2728 2322 2467 2637 
Q 2206 2953 1844 2953 
Q 1484 2953 1207 2617 
Q 931 2281 931 1641 
z
" transform="scale(0.015625)"/>
       <path id="ArialMT-6f" d="M 213 1659 
Q 213 2581 725 3025 
Q 1153 3394 1769 3394 
Q 2453 3394 2887 2945 
Q 3322 2497 3322 1706 
Q 3322 1066 3130 698 
Q 2938 331 2570 128 
Q 2203 -75 1769 -75 
Q 1072 -75 642 372 
Q 213 819 213 1659 
z
M 791 1659 
Q 791 1022 1069 705 
Q 1347 388 1769 388 
Q 2188 388 2466 706 
Q 2744 1025 2744 1678 
Q 2744 2294 2464 2611 
Q 2184 2928 1769 2928 
Q 1347 2928 1069 2612 
Q 791 2297 791 1659 
z
" transform="scale(0.015625)"/>
       <path id="ArialMT-72" d="M 416 0 
L 416 3319 
L 922 3319 
L 922 2816 
Q 1116 3169 1280 3281 
Q 1444 3394 1641 3394 
Q 1925 3394 2219 3213 
L 2025 2691 
Q 1819 2813 1613 2813 
Q 1428 2813 1281 2702 
Q 1134 2591 1072 2394 
Q 978 2094 978 1738 
L 978 0 
L 416 0 
z
" transform="scale(0.015625)"/>
       <path id="ArialMT-74" d="M 1650 503 
L 1731 6 
Q 1494 -44 1306 -44 
Q 1000 -44 831 53 
Q 663 150 594 308 
Q 525 466 525 972 
L 525 2881 
L 113 2881 
L 113 3319 
L 525 3319 
L 525 4141 
L 1084 4478 
L 1084 3319 
L 1650 3319 
L 1650 2881 
L 1084 2881 
L 1084 941 
Q 1084 700 1114 631 
Q 1144 563 1211 522 
Q 1278 481 1403 481 
Q 1497 481 1650 503 
z
" transform="scale(0.015625)"/>
       <path id="ArialMT-61" d="M 2588 409 
Q 2275 144 1986 34 
Q 1697 -75 1366 -75 
Q 819 -75 525 192 
Q 231 459 231 875 
Q 231 1119 342 1320 
Q 453 1522 633 1644 
Q 813 1766 1038 1828 
Q 1203 1872 1538 1913 
Q 2219 1994 2541 2106 
Q 2544 2222 2544 2253 
Q 2544 2597 2384 2738 
Q 2169 2928 1744 2928 
Q 1347 2928 1158 2789 
Q 969 2650 878 2297 
L 328 2372 
Q 403 2725 575 2942 
Q 747 3159 1072 3276 
Q 1397 3394 1825 3394 
Q 2250 3394 2515 3294 
Q 2781 3194 2906 3042 
Q 3031 2891 3081 2659 
Q 3109 2516 3109 2141 
L 3109 1391 
Q 3109 606 3145 398 
Q 3181 191 3288 0 
L 2700 0 
Q 2613 175 2588 409 
z
M 2541 1666 
Q 2234 1541 1622 1453 
Q 1275 1403 1131 1340 
Q 988 1278 909 1158 
Q 831 1038 831 891 
Q 831 666 1001 516 
Q 1172 366 1500 366 
Q 1825 366 2078 508 
Q 2331 650 2450 897 
Q 2541 1088 2541 1459 
L 2541 1666 
z
" transform="scale(0.015625)"/>
       <path id="ArialMT-6e" d="M 422 0 
L 422 3319 
L 928 3319 
L 928 2847 
Q 1294 3394 1984 3394 
Q 2284 3394 2536 3286 
Q 2788 3178 2913 3003 
Q 3038 2828 3088 2588 
Q 3119 2431 3119 2041 
L 3119 0 
L 2556 0 
L 2556 2019 
Q 2556 2363 2490 2533 
Q 2425 2703 2258 2804 
Q 2091 2906 1866 2906 
Q 1506 2906 1245 2678 
Q 984 2450 984 1813 
L 984 0 
L 422 0 
z
" transform="scale(0.015625)"/>
       <path id="ArialMT-63" d="M 2588 1216 
L 3141 1144 
Q 3050 572 2676 248 
Q 2303 -75 1759 -75 
Q 1078 -75 664 370 
Q 250 816 250 1647 
Q 250 2184 428 2587 
Q 606 2991 970 3192 
Q 1334 3394 1763 3394 
Q 2303 3394 2647 3120 
Q 2991 2847 3088 2344 
L 2541 2259 
Q 2463 2594 2264 2762 
Q 2066 2931 1784 2931 
Q 1359 2931 1093 2626 
Q 828 2322 828 1663 
Q 828 994 1084 691 
Q 1341 388 1753 388 
Q 2084 388 2306 591 
Q 2528 794 2588 1216 
z
" transform="scale(0.015625)"/>
       <path id="ArialMT-69" d="M 425 3934 
L 425 4581 
L 988 4581 
L 988 3934 
L 425 3934 
z
M 425 0 
L 425 3319 
L 988 3319 
L 988 0 
L 425 0 
z
" transform="scale(0.015625)"/>
      </defs>
      <use xlink:href="#ArialMT-49"/>
      <use xlink:href="#ArialMT-6d" transform="translate(27.783203 0)"/>
      <use xlink:href="#ArialMT-70" transform="translate(111.083984 0)"/>
      <use xlink:href="#ArialMT-6f" transform="translate(166.699219 0)"/>
      <use xlink:href="#ArialMT-72" transform="translate(222.314453 0)"/>
      <use xlink:href="#ArialMT-74" transform="translate(255.615234 0)"/>
      <use xlink:href="#ArialMT-61" transform="translate(283.398438 0)"/>
      <use xlink:href="#ArialMT-6e" transform="translate(339.013672 0)"/>
      <use xlink:href="#ArialMT-63" transform="translate(394.628906 0)"/>
      <use xlink:href="#ArialMT-69" transform="translate(444.628906 0)"/>
      <use xlink:href="#ArialMT-61" transform="translate(466.845703 0)"/>
     </g>
    </g>
   </g>
   <g id="matplotlib.axis_2">
    <g id="ytick_1">
     <g id="line2d_7">
      <path d="M 359.06 493.525117 
L 707.04 493.525117 
" clip-path="url(#p470759c901)" style="fill: none; stroke: #cccccc; stroke-linecap: round"/>
     </g>
     <g id="text_8">
      <!-- categorical__tipo_acidente_Colisão transversal -->
      <g style="fill: #262626" transform="translate(119.048125 497.528945) scale(0.11 -0.11)">
       <defs>
        <path id="ArialMT-65" d="M 2694 1069 
L 3275 997 
Q 3138 488 2766 206 
Q 2394 -75 1816 -75 
Q 1088 -75 661 373 
Q 234 822 234 1631 
Q 234 2469 665 2931 
Q 1097 3394 1784 3394 
Q 2450 3394 2872 2941 
Q 3294 2488 3294 1666 
Q 3294 1616 3291 1516 
L 816 1516 
Q 847 969 1125 678 
Q 1403 388 1819 388 
Q 2128 388 2347 550 
Q 2566 713 2694 1069 
z
M 847 1978 
L 2700 1978 
Q 2663 2397 2488 2606 
Q 2219 2931 1791 2931 
Q 1403 2931 1139 2672 
Q 875 2413 847 1978 
z
" transform="scale(0.015625)"/>
        <path id="ArialMT-67" d="M 319 -275 
L 866 -356 
Q 900 -609 1056 -725 
Q 1266 -881 1628 -881 
Q 2019 -881 2231 -725 
Q 2444 -569 2519 -288 
Q 2563 -116 2559 434 
Q 2191 0 1641 0 
Q 956 0 581 494 
Q 206 988 206 1678 
Q 206 2153 378 2554 
Q 550 2956 876 3175 
Q 1203 3394 1644 3394 
Q 2231 3394 2613 2919 
L 2613 3319 
L 3131 3319 
L 3131 450 
Q 3131 -325 2973 -648 
Q 2816 -972 2473 -1159 
Q 2131 -1347 1631 -1347 
Q 1038 -1347 672 -1080 
Q 306 -813 319 -275 
z
M 784 1719 
Q 784 1066 1043 766 
Q 1303 466 1694 466 
Q 2081 466 2343 764 
Q 2606 1063 2606 1700 
Q 2606 2309 2336 2618 
Q 2066 2928 1684 2928 
Q 1309 2928 1046 2623 
Q 784 2319 784 1719 
z
" transform="scale(0.015625)"/>
        <path id="ArialMT-6c" d="M 409 0 
L 409 4581 
L 972 4581 
L 972 0 
L 409 0 
z
" transform="scale(0.015625)"/>
        <path id="ArialMT-5f" d="M -97 -1272 
L -97 -866 
L 3631 -866 
L 3631 -1272 
L -97 -1272 
z
" transform="scale(0.015625)"/>
        <path id="ArialMT-64" d="M 2575 0 
L 2575 419 
Q 2259 -75 1647 -75 
Q 1250 -75 917 144 
Q 584 363 401 755 
Q 219 1147 219 1656 
Q 219 2153 384 2558 
Q 550 2963 881 3178 
Q 1213 3394 1622 3394 
Q 1922 3394 2156 3267 
Q 2391 3141 2538 2938 
L 2538 4581 
L 3097 4581 
L 3097 0 
L 2575 0 
z
M 797 1656 
Q 797 1019 1065 703 
Q 1334 388 1700 388 
Q 2069 388 2326 689 
Q 2584 991 2584 1609 
Q 2584 2291 2321 2609 
Q 2059 2928 1675 2928 
Q 1300 2928 1048 2622 
Q 797 2316 797 1656 
z
" transform="scale(0.015625)"/>
        <path id="ArialMT-43" d="M 3763 1606 
L 4369 1453 
Q 4178 706 3683 314 
Q 3188 -78 2472 -78 
Q 1731 -78 1267 223 
Q 803 525 561 1097 
Q 319 1669 319 2325 
Q 319 3041 592 3573 
Q 866 4106 1370 4382 
Q 1875 4659 2481 4659 
Q 3169 4659 3637 4309 
Q 4106 3959 4291 3325 
L 3694 3184 
Q 3534 3684 3231 3912 
Q 2928 4141 2469 4141 
Q 1941 4141 1586 3887 
Q 1231 3634 1087 3207 
Q 944 2781 944 2328 
Q 944 1744 1114 1308 
Q 1284 872 1643 656 
Q 2003 441 2422 441 
Q 2931 441 3284 734 
Q 3638 1028 3763 1606 
z
" transform="scale(0.015625)"/>
        <path id="ArialMT-73" d="M 197 991 
L 753 1078 
Q 800 744 1014 566 
Q 1228 388 1613 388 
Q 2000 388 2187 545 
Q 2375 703 2375 916 
Q 2375 1106 2209 1216 
Q 2094 1291 1634 1406 
Q 1016 1563 777 1677 
Q 538 1791 414 1992 
Q 291 2194 291 2438 
Q 291 2659 392 2848 
Q 494 3038 669 3163 
Q 800 3259 1026 3326 
Q 1253 3394 1513 3394 
Q 1903 3394 2198 3281 
Q 2494 3169 2634 2976 
Q 2775 2784 2828 2463 
L 2278 2388 
Q 2241 2644 2061 2787 
Q 1881 2931 1553 2931 
Q 1166 2931 1000 2803 
Q 834 2675 834 2503 
Q 834 2394 903 2306 
Q 972 2216 1119 2156 
Q 1203 2125 1616 2013 
Q 2213 1853 2448 1751 
Q 2684 1650 2818 1456 
Q 2953 1263 2953 975 
Q 2953 694 2789 445 
Q 2625 197 2315 61 
Q 2006 -75 1616 -75 
Q 969 -75 630 194 
Q 291 463 197 991 
z
" transform="scale(0.015625)"/>
        <path id="ArialMT-e3" d="M 2588 409 
Q 2275 144 1986 34 
Q 1697 -75 1366 -75 
Q 819 -75 525 192 
Q 231 459 231 875 
Q 231 1119 342 1320 
Q 453 1522 633 1644 
Q 813 1766 1038 1828 
Q 1203 1872 1538 1913 
Q 2219 1994 2541 2106 
Q 2544 2222 2544 2253 
Q 2544 2597 2384 2738 
Q 2169 2928 1744 2928 
Q 1347 2928 1158 2789 
Q 969 2650 878 2297 
L 328 2372 
Q 403 2725 575 2942 
Q 747 3159 1072 3276 
Q 1397 3394 1825 3394 
Q 2250 3394 2515 3294 
Q 2781 3194 2906 3042 
Q 3031 2891 3081 2659 
Q 3109 2516 3109 2141 
L 3109 1391 
Q 3109 606 3145 398 
Q 3181 191 3288 0 
L 2700 0 
Q 2613 175 2588 409 
z
M 2541 1666 
Q 2234 1541 1622 1453 
Q 1275 1403 1131 1340 
Q 988 1278 909 1158 
Q 831 1038 831 891 
Q 831 666 1001 516 
Q 1172 366 1500 366 
Q 1825 366 2078 508 
Q 2331 650 2450 897 
Q 2541 1088 2541 1459 
L 2541 1666 
z
M 718 3809 
Q 715 4134 896 4328 
Q 1074 4522 1352 4522 
Q 1546 4522 1880 4353 
Q 2065 4259 2174 4259 
Q 2274 4259 2327 4314 
Q 2380 4369 2402 4531 
L 2809 4531 
Q 2799 4175 2629 3997 
Q 2459 3819 2196 3819 
Q 1999 3819 1677 3994 
Q 1468 4106 1371 4106 
Q 1265 4106 1199 4031 
Q 1130 3956 1134 3809 
L 718 3809 
z
" transform="scale(0.015625)"/>
        <path id="ArialMT-20" transform="scale(0.015625)"/>
        <path id="ArialMT-76" d="M 1344 0 
L 81 3319 
L 675 3319 
L 1388 1331 
Q 1503 1009 1600 663 
Q 1675 925 1809 1294 
L 2547 3319 
L 3125 3319 
L 1869 0 
L 1344 0 
z
" transform="scale(0.015625)"/>
       </defs>
       <use xlink:href="#ArialMT-63"/>
       <use xlink:href="#ArialMT-61" transform="translate(50 0)"/>
       <use xlink:href="#ArialMT-74" transform="translate(105.615234 0)"/>
       <use xlink:href="#ArialMT-65" transform="translate(133.398438 0)"/>
       <use xlink:href="#ArialMT-67" transform="translate(189.013672 0)"/>
       <use xlink:href="#ArialMT-6f" transform="translate(244.628906 0)"/>
       <use xlink:href="#ArialMT-72" transform="translate(300.244141 0)"/>
       <use xlink:href="#ArialMT-69" transform="translate(333.544922 0)"/>
       <use xlink:href="#ArialMT-63" transform="translate(355.761719 0)"/>
       <use xlink:href="#ArialMT-61" transform="translate(405.761719 0)"/>
       <use xlink:href="#ArialMT-6c" transform="translate(461.376953 0)"/>
       <use xlink:href="#ArialMT-5f" transform="translate(483.59375 0)"/>
       <use xlink:href="#ArialMT-5f" transform="translate(539.208984 0)"/>
       <use xlink:href="#ArialMT-74" transform="translate(594.824219 0)"/>
       <use xlink:href="#ArialMT-69" transform="translate(622.607422 0)"/>
       <use xlink:href="#ArialMT-70" transform="translate(644.824219 0)"/>
       <use xlink:href="#ArialMT-6f" transform="translate(700.439453 0)"/>
       <use xlink:href="#ArialMT-5f" transform="translate(756.054688 0)"/>
       <use xlink:href="#ArialMT-61" transform="translate(811.669922 0)"/>
       <use xlink:href="#ArialMT-63" transform="translate(867.285156 0)"/>
       <use xlink:href="#ArialMT-69" transform="translate(917.285156 0)"/>
       <use xlink:href="#ArialMT-64" transform="translate(939.501953 0)"/>
       <use xlink:href="#ArialMT-65" transform="translate(995.117188 0)"/>
       <use xlink:href="#ArialMT-6e" transform="translate(1050.732422 0)"/>
       <use xlink:href="#ArialMT-74" transform="translate(1106.347656 0)"/>
       <use xlink:href="#ArialMT-65" transform="translate(1134.130859 0)"/>
       <use xlink:href="#ArialMT-5f" transform="translate(1189.746094 0)"/>
       <use xlink:href="#ArialMT-43" transform="translate(1245.361328 0)"/>
       <use xlink:href="#ArialMT-6f" transform="translate(1317.578125 0)"/>
       <use xlink:href="#ArialMT-6c" transform="translate(1373.193359 0)"/>
       <use xlink:href="#ArialMT-69" transform="translate(1395.410156 0)"/>
       <use xlink:href="#ArialMT-73" transform="translate(1417.626953 0)"/>
       <use xlink:href="#ArialMT-e3" transform="translate(1467.626953 0)"/>
       <use xlink:href="#ArialMT-6f" transform="translate(1523.242188 0)"/>
       <use xlink:href="#ArialMT-20" transform="translate(1578.857422 0)"/>
       <use xlink:href="#ArialMT-74" transform="translate(1606.640625 0)"/>
       <use xlink:href="#ArialMT-72" transform="translate(1634.423828 0)"/>
       <use xlink:href="#ArialMT-61" transform="translate(1667.724609 0)"/>
       <use xlink:href="#ArialMT-6e" transform="translate(1723.339844 0)"/>
       <use xlink:href="#ArialMT-73" transform="translate(1778.955078 0)"/>
       <use xlink:href="#ArialMT-76" transform="translate(1828.955078 0)"/>
       <use xlink:href="#ArialMT-65" transform="translate(1878.955078 0)"/>
       <use xlink:href="#ArialMT-72" transform="translate(1934.570312 0)"/>
       <use xlink:href="#ArialMT-73" transform="translate(1967.871094 0)"/>
       <use xlink:href="#ArialMT-61" transform="translate(2017.871094 0)"/>
       <use xlink:href="#ArialMT-6c" transform="translate(2073.486328 0)"/>
      </g>
     </g>
    </g>
    <g id="ytick_2">
     <g id="line2d_8">
      <path d="M 359.06 462.754386 
L 707.04 462.754386 
" clip-path="url(#p470759c901)" style="fill: none; stroke: #cccccc; stroke-linecap: round"/>
     </g>
     <g id="text_9">
      <!-- categorical__causa_acidente_Ingestão de álcool pelo condutor -->
      <g style="fill: #262626" transform="translate(41.970781 466.712667) scale(0.11 -0.11)">
       <defs>
        <path id="ArialMT-75" d="M 2597 0 
L 2597 488 
Q 2209 -75 1544 -75 
Q 1250 -75 995 37 
Q 741 150 617 320 
Q 494 491 444 738 
Q 409 903 409 1263 
L 409 3319 
L 972 3319 
L 972 1478 
Q 972 1038 1006 884 
Q 1059 663 1231 536 
Q 1403 409 1656 409 
Q 1909 409 2131 539 
Q 2353 669 2445 892 
Q 2538 1116 2538 1541 
L 2538 3319 
L 3100 3319 
L 3100 0 
L 2597 0 
z
" transform="scale(0.015625)"/>
        <path id="ArialMT-e1" d="M 2588 409 
Q 2275 144 1986 34 
Q 1697 -75 1366 -75 
Q 819 -75 525 192 
Q 231 459 231 875 
Q 231 1119 342 1320 
Q 453 1522 633 1644 
Q 813 1766 1038 1828 
Q 1203 1872 1538 1913 
Q 2219 1994 2541 2106 
Q 2544 2222 2544 2253 
Q 2544 2597 2384 2738 
Q 2169 2928 1744 2928 
Q 1347 2928 1158 2789 
Q 969 2650 878 2297 
L 328 2372 
Q 403 2725 575 2942 
Q 747 3159 1072 3276 
Q 1397 3394 1825 3394 
Q 2250 3394 2515 3294 
Q 2781 3194 2906 3042 
Q 3031 2891 3081 2659 
Q 3109 2516 3109 2141 
L 3109 1391 
Q 3109 606 3145 398 
Q 3181 191 3288 0 
L 2700 0 
Q 2613 175 2588 409 
z
M 2541 1666 
Q 2234 1541 1622 1453 
Q 1275 1403 1131 1340 
Q 988 1278 909 1158 
Q 831 1038 831 891 
Q 831 666 1001 516 
Q 1172 366 1500 366 
Q 1825 366 2078 508 
Q 2331 650 2450 897 
Q 2541 1088 2541 1459 
L 2541 1666 
z
M 1446 3731 
L 1861 4606 
L 2599 4606 
L 1911 3731 
L 1446 3731 
z
" transform="scale(0.015625)"/>
       </defs>
       <use xlink:href="#ArialMT-63"/>
       <use xlink:href="#ArialMT-61" transform="translate(50 0)"/>
       <use xlink:href="#ArialMT-74" transform="translate(105.615234 0)"/>
       <use xlink:href="#ArialMT-65" transform="translate(133.398438 0)"/>
       <use xlink:href="#ArialMT-67" transform="translate(189.013672 0)"/>
       <use xlink:href="#ArialMT-6f" transform="translate(244.628906 0)"/>
       <use xlink:href="#ArialMT-72" transform="translate(300.244141 0)"/>
       <use xlink:href="#ArialMT-69" transform="translate(333.544922 0)"/>
       <use xlink:href="#ArialMT-63" transform="translate(355.761719 0)"/>
       <use xlink:href="#ArialMT-61" transform="translate(405.761719 0)"/>
       <use xlink:href="#ArialMT-6c" transform="translate(461.376953 0)"/>
       <use xlink:href="#ArialMT-5f" transform="translate(483.59375 0)"/>
       <use xlink:href="#ArialMT-5f" transform="translate(539.208984 0)"/>
       <use xlink:href="#ArialMT-63" transform="translate(594.824219 0)"/>
       <use xlink:href="#ArialMT-61" transform="translate(644.824219 0)"/>
       <use xlink:href="#ArialMT-75" transform="translate(700.439453 0)"/>
       <use xlink:href="#ArialMT-73" transform="translate(756.054688 0)"/>
       <use xlink:href="#ArialMT-61" transform="translate(806.054688 0)"/>
       <use xlink:href="#ArialMT-5f" transform="translate(861.669922 0)"/>
       <use xlink:href="#ArialMT-61" transform="translate(917.285156 0)"/>
       <use xlink:href="#ArialMT-63" transform="translate(972.900391 0)"/>
       <use xlink:href="#ArialMT-69" transform="translate(1022.900391 0)"/>
       <use xlink:href="#ArialMT-64" transform="translate(1045.117188 0)"/>
       <use xlink:href="#ArialMT-65" transform="translate(1100.732422 0)"/>
       <use xlink:href="#ArialMT-6e" transform="translate(1156.347656 0)"/>
       <use xlink:href="#ArialMT-74" transform="translate(1211.962891 0)"/>
       <use xlink:href="#ArialMT-65" transform="translate(1239.746094 0)"/>
       <use xlink:href="#ArialMT-5f" transform="translate(1295.361328 0)"/>
       <use xlink:href="#ArialMT-49" transform="translate(1350.976562 0)"/>
       <use xlink:href="#ArialMT-6e" transform="translate(1378.759766 0)"/>
       <use xlink:href="#ArialMT-67" transform="translate(1434.375 0)"/>
       <use xlink:href="#ArialMT-65" transform="translate(1489.990234 0)"/>
       <use xlink:href="#ArialMT-73" transform="translate(1545.605469 0)"/>
       <use xlink:href="#ArialMT-74" transform="translate(1595.605469 0)"/>
       <use xlink:href="#ArialMT-e3" transform="translate(1623.388672 0)"/>
       <use xlink:href="#ArialMT-6f" transform="translate(1679.003906 0)"/>
       <use xlink:href="#ArialMT-20" transform="translate(1734.619141 0)"/>
       <use xlink:href="#ArialMT-64" transform="translate(1762.402344 0)"/>
       <use xlink:href="#ArialMT-65" transform="translate(1818.017578 0)"/>
       <use xlink:href="#ArialMT-20" transform="translate(1873.632812 0)"/>
       <use xlink:href="#ArialMT-e1" transform="translate(1901.416016 0)"/>
       <use xlink:href="#ArialMT-6c" transform="translate(1957.03125 0)"/>
       <use xlink:href="#ArialMT-63" transform="translate(1979.248047 0)"/>
       <use xlink:href="#ArialMT-6f" transform="translate(2029.248047 0)"/>
       <use xlink:href="#ArialMT-6f" transform="translate(2084.863281 0)"/>
       <use xlink:href="#ArialMT-6c" transform="translate(2140.478516 0)"/>
       <use xlink:href="#ArialMT-20" transform="translate(2162.695312 0)"/>
       <use xlink:href="#ArialMT-70" transform="translate(2190.478516 0)"/>
       <use xlink:href="#ArialMT-65" transform="translate(2246.09375 0)"/>
       <use xlink:href="#ArialMT-6c" transform="translate(2301.708984 0)"/>
       <use xlink:href="#ArialMT-6f" transform="translate(2323.925781 0)"/>
       <use xlink:href="#ArialMT-20" transform="translate(2379.541016 0)"/>
       <use xlink:href="#ArialMT-63" transform="translate(2407.324219 0)"/>
       <use xlink:href="#ArialMT-6f" transform="translate(2457.324219 0)"/>
       <use xlink:href="#ArialMT-6e" transform="translate(2512.939453 0)"/>
       <use xlink:href="#ArialMT-64" transform="translate(2568.554688 0)"/>
       <use xlink:href="#ArialMT-75" transform="translate(2624.169922 0)"/>
       <use xlink:href="#ArialMT-74" transform="translate(2679.785156 0)"/>
       <use xlink:href="#ArialMT-6f" transform="translate(2707.568359 0)"/>
       <use xlink:href="#ArialMT-72" transform="translate(2763.183594 0)"/>
      </g>
     </g>
    </g>
    <g id="ytick_3">
     <g id="line2d_9">
      <path d="M 359.06 431.983655 
L 707.04 431.983655 
" clip-path="url(#p470759c901)" style="fill: none; stroke: #cccccc; stroke-linecap: round"/>
     </g>
     <g id="text_10">
      <!-- categorical__causa_acidente_Não guardar distância de segurança -->
      <g style="fill: #262626" transform="translate(23.640313 435.941936) scale(0.11 -0.11)">
       <defs>
        <path id="ArialMT-4e" d="M 488 0 
L 488 4581 
L 1109 4581 
L 3516 984 
L 3516 4581 
L 4097 4581 
L 4097 0 
L 3475 0 
L 1069 3600 
L 1069 0 
L 488 0 
z
" transform="scale(0.015625)"/>
        <path id="ArialMT-e2" d="M 2588 409 
Q 2275 144 1986 34 
Q 1697 -75 1366 -75 
Q 819 -75 525 192 
Q 231 459 231 875 
Q 231 1119 342 1320 
Q 453 1522 633 1644 
Q 813 1766 1038 1828 
Q 1203 1872 1538 1913 
Q 2219 1994 2541 2106 
Q 2544 2222 2544 2253 
Q 2544 2597 2384 2738 
Q 2169 2928 1744 2928 
Q 1347 2928 1158 2789 
Q 969 2650 878 2297 
L 328 2372 
Q 403 2725 575 2942 
Q 747 3159 1072 3276 
Q 1397 3394 1825 3394 
Q 2250 3394 2515 3294 
Q 2781 3194 2906 3042 
Q 3031 2891 3081 2659 
Q 3109 2516 3109 2141 
L 3109 1391 
Q 3109 606 3145 398 
Q 3181 191 3288 0 
L 2700 0 
Q 2613 175 2588 409 
z
M 2541 1666 
Q 2234 1541 1622 1453 
Q 1275 1403 1131 1340 
Q 988 1278 909 1158 
Q 831 1038 831 891 
Q 831 666 1001 516 
Q 1172 366 1500 366 
Q 1825 366 2078 508 
Q 2331 650 2450 897 
Q 2541 1088 2541 1459 
L 2541 1666 
z
M 1771 4263 
L 1418 3731 
L 774 3731 
L 1449 4606 
L 2049 4606 
L 2752 3731 
L 2115 3731 
L 1771 4263 
z
" transform="scale(0.015625)"/>
        <path id="ArialMT-e7" d="M 2588 1216 
L 3141 1144 
Q 3050 572 2676 248 
Q 2303 -75 1759 -75 
Q 1078 -75 664 370 
Q 250 816 250 1647 
Q 250 2184 428 2587 
Q 606 2991 970 3192 
Q 1334 3394 1763 3394 
Q 2303 3394 2647 3120 
Q 2991 2847 3088 2344 
L 2541 2259 
Q 2463 2594 2264 2762 
Q 2066 2931 1784 2931 
Q 1359 2931 1093 2626 
Q 828 2322 828 1663 
Q 828 994 1084 691 
Q 1341 388 1753 388 
Q 2084 388 2306 591 
Q 2528 794 2588 1216 
z
M 1283 -417 
L 1446 136 
L 1864 136 
L 1761 -199 
Q 2027 -230 2161 -362 
Q 2296 -495 2296 -658 
Q 2296 -892 2071 -1072 
Q 1846 -1252 1392 -1252 
Q 1136 -1252 942 -1214 
L 977 -849 
Q 1177 -861 1271 -861 
Q 1564 -861 1683 -780 
Q 1774 -717 1774 -627 
Q 1774 -570 1738 -526 
Q 1702 -483 1605 -451 
Q 1508 -420 1283 -417 
z
" transform="scale(0.015625)"/>
       </defs>
       <use xlink:href="#ArialMT-63"/>
       <use xlink:href="#ArialMT-61" transform="translate(50 0)"/>
       <use xlink:href="#ArialMT-74" transform="translate(105.615234 0)"/>
       <use xlink:href="#ArialMT-65" transform="translate(133.398438 0)"/>
       <use xlink:href="#ArialMT-67" transform="translate(189.013672 0)"/>
       <use xlink:href="#ArialMT-6f" transform="translate(244.628906 0)"/>
       <use xlink:href="#ArialMT-72" transform="translate(300.244141 0)"/>
       <use xlink:href="#ArialMT-69" transform="translate(333.544922 0)"/>
       <use xlink:href="#ArialMT-63" transform="translate(355.761719 0)"/>
       <use xlink:href="#ArialMT-61" transform="translate(405.761719 0)"/>
       <use xlink:href="#ArialMT-6c" transform="translate(461.376953 0)"/>
       <use xlink:href="#ArialMT-5f" transform="translate(483.59375 0)"/>
       <use xlink:href="#ArialMT-5f" transform="translate(539.208984 0)"/>
       <use xlink:href="#ArialMT-63" transform="translate(594.824219 0)"/>
       <use xlink:href="#ArialMT-61" transform="translate(644.824219 0)"/>
       <use xlink:href="#ArialMT-75" transform="translate(700.439453 0)"/>
       <use xlink:href="#ArialMT-73" transform="translate(756.054688 0)"/>
       <use xlink:href="#ArialMT-61" transform="translate(806.054688 0)"/>
       <use xlink:href="#ArialMT-5f" transform="translate(861.669922 0)"/>
       <use xlink:href="#ArialMT-61" transform="translate(917.285156 0)"/>
       <use xlink:href="#ArialMT-63" transform="translate(972.900391 0)"/>
       <use xlink:href="#ArialMT-69" transform="translate(1022.900391 0)"/>
       <use xlink:href="#ArialMT-64" transform="translate(1045.117188 0)"/>
       <use xlink:href="#ArialMT-65" transform="translate(1100.732422 0)"/>
       <use xlink:href="#ArialMT-6e" transform="translate(1156.347656 0)"/>
       <use xlink:href="#ArialMT-74" transform="translate(1211.962891 0)"/>
       <use xlink:href="#ArialMT-65" transform="translate(1239.746094 0)"/>
       <use xlink:href="#ArialMT-5f" transform="translate(1295.361328 0)"/>
       <use xlink:href="#ArialMT-4e" transform="translate(1350.976562 0)"/>
       <use xlink:href="#ArialMT-e3" transform="translate(1423.193359 0)"/>
       <use xlink:href="#ArialMT-6f" transform="translate(1478.808594 0)"/>
       <use xlink:href="#ArialMT-20" transform="translate(1534.423828 0)"/>
       <use xlink:href="#ArialMT-67" transform="translate(1562.207031 0)"/>
       <use xlink:href="#ArialMT-75" transform="translate(1617.822266 0)"/>
       <use xlink:href="#ArialMT-61" transform="translate(1673.4375 0)"/>
       <use xlink:href="#ArialMT-72" transform="translate(1729.052734 0)"/>
       <use xlink:href="#ArialMT-64" transform="translate(1762.353516 0)"/>
       <use xlink:href="#ArialMT-61" transform="translate(1817.96875 0)"/>
       <use xlink:href="#ArialMT-72" transform="translate(1873.583984 0)"/>
       <use xlink:href="#ArialMT-20" transform="translate(1906.884766 0)"/>
       <use xlink:href="#ArialMT-64" transform="translate(1934.667969 0)"/>
       <use xlink:href="#ArialMT-69" transform="translate(1990.283203 0)"/>
       <use xlink:href="#ArialMT-73" transform="translate(2012.5 0)"/>
       <use xlink:href="#ArialMT-74" transform="translate(2062.5 0)"/>
       <use xlink:href="#ArialMT-e2" transform="translate(2090.283203 0)"/>
       <use xlink:href="#ArialMT-6e" transform="translate(2145.898438 0)"/>
       <use xlink:href="#ArialMT-63" transform="translate(2201.513672 0)"/>
       <use xlink:href="#ArialMT-69" transform="translate(2251.513672 0)"/>
       <use xlink:href="#ArialMT-61" transform="translate(2273.730469 0)"/>
       <use xlink:href="#ArialMT-20" transform="translate(2329.345703 0)"/>
       <use xlink:href="#ArialMT-64" transform="translate(2357.128906 0)"/>
       <use xlink:href="#ArialMT-65" transform="translate(2412.744141 0)"/>
       <use xlink:href="#ArialMT-20" transform="translate(2468.359375 0)"/>
       <use xlink:href="#ArialMT-73" transform="translate(2496.142578 0)"/>
       <use xlink:href="#ArialMT-65" transform="translate(2546.142578 0)"/>
       <use xlink:href="#ArialMT-67" transform="translate(2601.757812 0)"/>
       <use xlink:href="#ArialMT-75" transform="translate(2657.373047 0)"/>
       <use xlink:href="#ArialMT-72" transform="translate(2712.988281 0)"/>
       <use xlink:href="#ArialMT-61" transform="translate(2746.289062 0)"/>
       <use xlink:href="#ArialMT-6e" transform="translate(2801.904297 0)"/>
       <use xlink:href="#ArialMT-e7" transform="translate(2857.519531 0)"/>
       <use xlink:href="#ArialMT-61" transform="translate(2907.519531 0)"/>
      </g>
     </g>
    </g>
    <g id="ytick_4">
     <g id="line2d_10">
      <path d="M 359.06 401.212924 
L 707.04 401.212924 
" clip-path="url(#p470759c901)" style="fill: none; stroke: #cccccc; stroke-linecap: round"/>
     </g>
     <g id="text_11">
      <!-- categorical__fase_dia_Pleno dia -->
      <g style="fill: #262626" transform="translate(190.565313 405.216752) scale(0.11 -0.11)">
       <defs>
        <path id="ArialMT-66" d="M 556 0 
L 556 2881 
L 59 2881 
L 59 3319 
L 556 3319 
L 556 3672 
Q 556 4006 616 4169 
Q 697 4388 901 4523 
Q 1106 4659 1475 4659 
Q 1713 4659 2000 4603 
L 1916 4113 
Q 1741 4144 1584 4144 
Q 1328 4144 1222 4034 
Q 1116 3925 1116 3625 
L 1116 3319 
L 1763 3319 
L 1763 2881 
L 1116 2881 
L 1116 0 
L 556 0 
z
" transform="scale(0.015625)"/>
        <path id="ArialMT-50" d="M 494 0 
L 494 4581 
L 2222 4581 
Q 2678 4581 2919 4538 
Q 3256 4481 3484 4323 
Q 3713 4166 3852 3881 
Q 3991 3597 3991 3256 
Q 3991 2672 3619 2267 
Q 3247 1863 2275 1863 
L 1100 1863 
L 1100 0 
L 494 0 
z
M 1100 2403 
L 2284 2403 
Q 2872 2403 3119 2622 
Q 3366 2841 3366 3238 
Q 3366 3525 3220 3729 
Q 3075 3934 2838 4000 
Q 2684 4041 2272 4041 
L 1100 4041 
L 1100 2403 
z
" transform="scale(0.015625)"/>
       </defs>
       <use xlink:href="#ArialMT-63"/>
       <use xlink:href="#ArialMT-61" transform="translate(50 0)"/>
       <use xlink:href="#ArialMT-74" transform="translate(105.615234 0)"/>
       <use xlink:href="#ArialMT-65" transform="translate(133.398438 0)"/>
       <use xlink:href="#ArialMT-67" transform="translate(189.013672 0)"/>
       <use xlink:href="#ArialMT-6f" transform="translate(244.628906 0)"/>
       <use xlink:href="#ArialMT-72" transform="translate(300.244141 0)"/>
       <use xlink:href="#ArialMT-69" transform="translate(333.544922 0)"/>
       <use xlink:href="#ArialMT-63" transform="translate(355.761719 0)"/>
       <use xlink:href="#ArialMT-61" transform="translate(405.761719 0)"/>
       <use xlink:href="#ArialMT-6c" transform="translate(461.376953 0)"/>
       <use xlink:href="#ArialMT-5f" transform="translate(483.59375 0)"/>
       <use xlink:href="#ArialMT-5f" transform="translate(539.208984 0)"/>
       <use xlink:href="#ArialMT-66" transform="translate(594.824219 0)"/>
       <use xlink:href="#ArialMT-61" transform="translate(622.607422 0)"/>
       <use xlink:href="#ArialMT-73" transform="translate(678.222656 0)"/>
       <use xlink:href="#ArialMT-65" transform="translate(728.222656 0)"/>
       <use xlink:href="#ArialMT-5f" transform="translate(783.837891 0)"/>
       <use xlink:href="#ArialMT-64" transform="translate(839.453125 0)"/>
       <use xlink:href="#ArialMT-69" transform="translate(895.068359 0)"/>
       <use xlink:href="#ArialMT-61" transform="translate(917.285156 0)"/>
       <use xlink:href="#ArialMT-5f" transform="translate(972.900391 0)"/>
       <use xlink:href="#ArialMT-50" transform="translate(1028.515625 0)"/>
       <use xlink:href="#ArialMT-6c" transform="translate(1095.214844 0)"/>
       <use xlink:href="#ArialMT-65" transform="translate(1117.431641 0)"/>
       <use xlink:href="#ArialMT-6e" transform="translate(1173.046875 0)"/>
       <use xlink:href="#ArialMT-6f" transform="translate(1228.662109 0)"/>
       <use xlink:href="#ArialMT-20" transform="translate(1284.277344 0)"/>
       <use xlink:href="#ArialMT-64" transform="translate(1312.060547 0)"/>
       <use xlink:href="#ArialMT-69" transform="translate(1367.675781 0)"/>
       <use xlink:href="#ArialMT-61" transform="translate(1389.892578 0)"/>
      </g>
     </g>
    </g>
    <g id="ytick_5">
     <g id="line2d_11">
      <path d="M 359.06 370.442193 
L 707.04 370.442193 
" clip-path="url(#p470759c901)" style="fill: none; stroke: #cccccc; stroke-linecap: round"/>
     </g>
     <g id="text_12">
      <!-- categorical__tipo_acidente_Queda de ocupante de veículo -->
      <g style="fill: #262626" transform="translate(62.755625 374.449458) scale(0.11 -0.11)">
       <defs>
        <path id="ArialMT-51" d="M 3966 491 
Q 4388 200 4744 66 
L 4566 -356 
Q 4072 -178 3581 206 
Q 3072 -78 2456 -78 
Q 1834 -78 1328 222 
Q 822 522 548 1065 
Q 275 1609 275 2291 
Q 275 2969 550 3525 
Q 825 4081 1333 4372 
Q 1841 4663 2469 4663 
Q 3103 4663 3612 4361 
Q 4122 4059 4389 3517 
Q 4656 2975 4656 2294 
Q 4656 1728 4484 1276 
Q 4313 825 3966 491 
z
M 2631 1266 
Q 3156 1119 3497 828 
Q 4031 1316 4031 2294 
Q 4031 2850 3842 3265 
Q 3653 3681 3289 3911 
Q 2925 4141 2472 4141 
Q 1794 4141 1347 3677 
Q 900 3213 900 2291 
Q 900 1397 1342 919 
Q 1784 441 2472 441 
Q 2797 441 3084 563 
Q 2800 747 2484 825 
L 2631 1266 
z
" transform="scale(0.015625)"/>
        <path id="ArialMT-ed" d="M 619 0 
L 619 3319 
L 1181 3319 
L 1181 0 
L 619 0 
z
M 590 3731 
L 1005 4606 
L 1743 4606 
L 1055 3731 
L 590 3731 
z
" transform="scale(0.015625)"/>
       </defs>
       <use xlink:href="#ArialMT-63"/>
       <use xlink:href="#ArialMT-61" transform="translate(50 0)"/>
       <use xlink:href="#ArialMT-74" transform="translate(105.615234 0)"/>
       <use xlink:href="#ArialMT-65" transform="translate(133.398438 0)"/>
       <use xlink:href="#ArialMT-67" transform="translate(189.013672 0)"/>
       <use xlink:href="#ArialMT-6f" transform="translate(244.628906 0)"/>
       <use xlink:href="#ArialMT-72" transform="translate(300.244141 0)"/>
       <use xlink:href="#ArialMT-69" transform="translate(333.544922 0)"/>
       <use xlink:href="#ArialMT-63" transform="translate(355.761719 0)"/>
       <use xlink:href="#ArialMT-61" transform="translate(405.761719 0)"/>
       <use xlink:href="#ArialMT-6c" transform="translate(461.376953 0)"/>
       <use xlink:href="#ArialMT-5f" transform="translate(483.59375 0)"/>
       <use xlink:href="#ArialMT-5f" transform="translate(539.208984 0)"/>
       <use xlink:href="#ArialMT-74" transform="translate(594.824219 0)"/>
       <use xlink:href="#ArialMT-69" transform="translate(622.607422 0)"/>
       <use xlink:href="#ArialMT-70" transform="translate(644.824219 0)"/>
       <use xlink:href="#ArialMT-6f" transform="translate(700.439453 0)"/>
       <use xlink:href="#ArialMT-5f" transform="translate(756.054688 0)"/>
       <use xlink:href="#ArialMT-61" transform="translate(811.669922 0)"/>
       <use xlink:href="#ArialMT-63" transform="translate(867.285156 0)"/>
       <use xlink:href="#ArialMT-69" transform="translate(917.285156 0)"/>
       <use xlink:href="#ArialMT-64" transform="translate(939.501953 0)"/>
       <use xlink:href="#ArialMT-65" transform="translate(995.117188 0)"/>
       <use xlink:href="#ArialMT-6e" transform="translate(1050.732422 0)"/>
       <use xlink:href="#ArialMT-74" transform="translate(1106.347656 0)"/>
       <use xlink:href="#ArialMT-65" transform="translate(1134.130859 0)"/>
       <use xlink:href="#ArialMT-5f" transform="translate(1189.746094 0)"/>
       <use xlink:href="#ArialMT-51" transform="translate(1245.361328 0)"/>
       <use xlink:href="#ArialMT-75" transform="translate(1323.144531 0)"/>
       <use xlink:href="#ArialMT-65" transform="translate(1378.759766 0)"/>
       <use xlink:href="#ArialMT-64" transform="translate(1434.375 0)"/>
       <use xlink:href="#ArialMT-61" transform="translate(1489.990234 0)"/>
       <use xlink:href="#ArialMT-20" transform="translate(1545.605469 0)"/>
       <use xlink:href="#ArialMT-64" transform="translate(1573.388672 0)"/>
       <use xlink:href="#ArialMT-65" transform="translate(1629.003906 0)"/>
       <use xlink:href="#ArialMT-20" transform="translate(1684.619141 0)"/>
       <use xlink:href="#ArialMT-6f" transform="translate(1712.402344 0)"/>
       <use xlink:href="#ArialMT-63" transform="translate(1768.017578 0)"/>
       <use xlink:href="#ArialMT-75" transform="translate(1818.017578 0)"/>
       <use xlink:href="#ArialMT-70" transform="translate(1873.632812 0)"/>
       <use xlink:href="#ArialMT-61" transform="translate(1929.248047 0)"/>
       <use xlink:href="#ArialMT-6e" transform="translate(1984.863281 0)"/>
       <use xlink:href="#ArialMT-74" transform="translate(2040.478516 0)"/>
       <use xlink:href="#ArialMT-65" transform="translate(2068.261719 0)"/>
       <use xlink:href="#ArialMT-20" transform="translate(2123.876953 0)"/>
       <use xlink:href="#ArialMT-64" transform="translate(2151.660156 0)"/>
       <use xlink:href="#ArialMT-65" transform="translate(2207.275391 0)"/>
       <use xlink:href="#ArialMT-20" transform="translate(2262.890625 0)"/>
       <use xlink:href="#ArialMT-76" transform="translate(2290.673828 0)"/>
       <use xlink:href="#ArialMT-65" transform="translate(2340.673828 0)"/>
       <use xlink:href="#ArialMT-ed" transform="translate(2396.289062 0)"/>
       <use xlink:href="#ArialMT-63" transform="translate(2424.072266 0)"/>
       <use xlink:href="#ArialMT-75" transform="translate(2474.072266 0)"/>
       <use xlink:href="#ArialMT-6c" transform="translate(2529.6875 0)"/>
       <use xlink:href="#ArialMT-6f" transform="translate(2551.904297 0)"/>
      </g>
     </g>
    </g>
    <g id="ytick_6">
     <g id="line2d_12">
      <path d="M 359.06 339.671462 
L 707.04 339.671462 
" clip-path="url(#p470759c901)" style="fill: none; stroke: #cccccc; stroke-linecap: round"/>
     </g>
     <g id="text_13">
      <!-- categorical__tipo_acidente_Atropelamento de Pedestre -->
      <g style="fill: #262626" transform="translate(78.672969 343.608259) scale(0.11 -0.11)">
       <defs>
        <path id="ArialMT-41" d="M -9 0 
L 1750 4581 
L 2403 4581 
L 4278 0 
L 3588 0 
L 3053 1388 
L 1138 1388 
L 634 0 
L -9 0 
z
M 1313 1881 
L 2866 1881 
L 2388 3150 
Q 2169 3728 2063 4100 
Q 1975 3659 1816 3225 
L 1313 1881 
z
" transform="scale(0.015625)"/>
       </defs>
       <use xlink:href="#ArialMT-63"/>
       <use xlink:href="#ArialMT-61" transform="translate(50 0)"/>
       <use xlink:href="#ArialMT-74" transform="translate(105.615234 0)"/>
       <use xlink:href="#ArialMT-65" transform="translate(133.398438 0)"/>
       <use xlink:href="#ArialMT-67" transform="translate(189.013672 0)"/>
       <use xlink:href="#ArialMT-6f" transform="translate(244.628906 0)"/>
       <use xlink:href="#ArialMT-72" transform="translate(300.244141 0)"/>
       <use xlink:href="#ArialMT-69" transform="translate(333.544922 0)"/>
       <use xlink:href="#ArialMT-63" transform="translate(355.761719 0)"/>
       <use xlink:href="#ArialMT-61" transform="translate(405.761719 0)"/>
       <use xlink:href="#ArialMT-6c" transform="translate(461.376953 0)"/>
       <use xlink:href="#ArialMT-5f" transform="translate(483.59375 0)"/>
       <use xlink:href="#ArialMT-5f" transform="translate(539.208984 0)"/>
       <use xlink:href="#ArialMT-74" transform="translate(594.824219 0)"/>
       <use xlink:href="#ArialMT-69" transform="translate(622.607422 0)"/>
       <use xlink:href="#ArialMT-70" transform="translate(644.824219 0)"/>
       <use xlink:href="#ArialMT-6f" transform="translate(700.439453 0)"/>
       <use xlink:href="#ArialMT-5f" transform="translate(756.054688 0)"/>
       <use xlink:href="#ArialMT-61" transform="translate(811.669922 0)"/>
       <use xlink:href="#ArialMT-63" transform="translate(867.285156 0)"/>
       <use xlink:href="#ArialMT-69" transform="translate(917.285156 0)"/>
       <use xlink:href="#ArialMT-64" transform="translate(939.501953 0)"/>
       <use xlink:href="#ArialMT-65" transform="translate(995.117188 0)"/>
       <use xlink:href="#ArialMT-6e" transform="translate(1050.732422 0)"/>
       <use xlink:href="#ArialMT-74" transform="translate(1106.347656 0)"/>
       <use xlink:href="#ArialMT-65" transform="translate(1134.130859 0)"/>
       <use xlink:href="#ArialMT-5f" transform="translate(1189.746094 0)"/>
       <use xlink:href="#ArialMT-41" transform="translate(1245.361328 0)"/>
       <use xlink:href="#ArialMT-74" transform="translate(1312.060547 0)"/>
       <use xlink:href="#ArialMT-72" transform="translate(1339.84375 0)"/>
       <use xlink:href="#ArialMT-6f" transform="translate(1373.144531 0)"/>
       <use xlink:href="#ArialMT-70" transform="translate(1428.759766 0)"/>
       <use xlink:href="#ArialMT-65" transform="translate(1484.375 0)"/>
       <use xlink:href="#ArialMT-6c" transform="translate(1539.990234 0)"/>
       <use xlink:href="#ArialMT-61" transform="translate(1562.207031 0)"/>
       <use xlink:href="#ArialMT-6d" transform="translate(1617.822266 0)"/>
       <use xlink:href="#ArialMT-65" transform="translate(1701.123047 0)"/>
       <use xlink:href="#ArialMT-6e" transform="translate(1756.738281 0)"/>
       <use xlink:href="#ArialMT-74" transform="translate(1812.353516 0)"/>
       <use xlink:href="#ArialMT-6f" transform="translate(1840.136719 0)"/>
       <use xlink:href="#ArialMT-20" transform="translate(1895.751953 0)"/>
       <use xlink:href="#ArialMT-64" transform="translate(1923.535156 0)"/>
       <use xlink:href="#ArialMT-65" transform="translate(1979.150391 0)"/>
       <use xlink:href="#ArialMT-20" transform="translate(2034.765625 0)"/>
       <use xlink:href="#ArialMT-50" transform="translate(2062.548828 0)"/>
       <use xlink:href="#ArialMT-65" transform="translate(2129.248047 0)"/>
       <use xlink:href="#ArialMT-64" transform="translate(2184.863281 0)"/>
       <use xlink:href="#ArialMT-65" transform="translate(2240.478516 0)"/>
       <use xlink:href="#ArialMT-73" transform="translate(2296.09375 0)"/>
       <use xlink:href="#ArialMT-74" transform="translate(2346.09375 0)"/>
       <use xlink:href="#ArialMT-72" transform="translate(2373.876953 0)"/>
       <use xlink:href="#ArialMT-65" transform="translate(2407.177734 0)"/>
      </g>
     </g>
    </g>
    <g id="ytick_7">
     <g id="line2d_13">
      <path d="M 359.06 308.900731 
L 707.04 308.900731 
" clip-path="url(#p470759c901)" style="fill: none; stroke: #cccccc; stroke-linecap: round"/>
     </g>
     <g id="text_14">
      <!-- categorical__tipo_acidente_Colisão com bicicleta -->
      <g style="fill: #262626" transform="translate(109.266719 312.904559) scale(0.11 -0.11)">
       <defs>
        <path id="ArialMT-62" d="M 941 0 
L 419 0 
L 419 4581 
L 981 4581 
L 981 2947 
Q 1338 3394 1891 3394 
Q 2197 3394 2470 3270 
Q 2744 3147 2920 2923 
Q 3097 2700 3197 2384 
Q 3297 2069 3297 1709 
Q 3297 856 2875 390 
Q 2453 -75 1863 -75 
Q 1275 -75 941 416 
L 941 0 
z
M 934 1684 
Q 934 1088 1097 822 
Q 1363 388 1816 388 
Q 2184 388 2453 708 
Q 2722 1028 2722 1663 
Q 2722 2313 2464 2622 
Q 2206 2931 1841 2931 
Q 1472 2931 1203 2611 
Q 934 2291 934 1684 
z
" transform="scale(0.015625)"/>
       </defs>
       <use xlink:href="#ArialMT-63"/>
       <use xlink:href="#ArialMT-61" transform="translate(50 0)"/>
       <use xlink:href="#ArialMT-74" transform="translate(105.615234 0)"/>
       <use xlink:href="#ArialMT-65" transform="translate(133.398438 0)"/>
       <use xlink:href="#ArialMT-67" transform="translate(189.013672 0)"/>
       <use xlink:href="#ArialMT-6f" transform="translate(244.628906 0)"/>
       <use xlink:href="#ArialMT-72" transform="translate(300.244141 0)"/>
       <use xlink:href="#ArialMT-69" transform="translate(333.544922 0)"/>
       <use xlink:href="#ArialMT-63" transform="translate(355.761719 0)"/>
       <use xlink:href="#ArialMT-61" transform="translate(405.761719 0)"/>
       <use xlink:href="#ArialMT-6c" transform="translate(461.376953 0)"/>
       <use xlink:href="#ArialMT-5f" transform="translate(483.59375 0)"/>
       <use xlink:href="#ArialMT-5f" transform="translate(539.208984 0)"/>
       <use xlink:href="#ArialMT-74" transform="translate(594.824219 0)"/>
       <use xlink:href="#ArialMT-69" transform="translate(622.607422 0)"/>
       <use xlink:href="#ArialMT-70" transform="translate(644.824219 0)"/>
       <use xlink:href="#ArialMT-6f" transform="translate(700.439453 0)"/>
       <use xlink:href="#ArialMT-5f" transform="translate(756.054688 0)"/>
       <use xlink:href="#ArialMT-61" transform="translate(811.669922 0)"/>
       <use xlink:href="#ArialMT-63" transform="translate(867.285156 0)"/>
       <use xlink:href="#ArialMT-69" transform="translate(917.285156 0)"/>
       <use xlink:href="#ArialMT-64" transform="translate(939.501953 0)"/>
       <use xlink:href="#ArialMT-65" transform="translate(995.117188 0)"/>
       <use xlink:href="#ArialMT-6e" transform="translate(1050.732422 0)"/>
       <use xlink:href="#ArialMT-74" transform="translate(1106.347656 0)"/>
       <use xlink:href="#ArialMT-65" transform="translate(1134.130859 0)"/>
       <use xlink:href="#ArialMT-5f" transform="translate(1189.746094 0)"/>
       <use xlink:href="#ArialMT-43" transform="translate(1245.361328 0)"/>
       <use xlink:href="#ArialMT-6f" transform="translate(1317.578125 0)"/>
       <use xlink:href="#ArialMT-6c" transform="translate(1373.193359 0)"/>
       <use xlink:href="#ArialMT-69" transform="translate(1395.410156 0)"/>
       <use xlink:href="#ArialMT-73" transform="translate(1417.626953 0)"/>
       <use xlink:href="#ArialMT-e3" transform="translate(1467.626953 0)"/>
       <use xlink:href="#ArialMT-6f" transform="translate(1523.242188 0)"/>
       <use xlink:href="#ArialMT-20" transform="translate(1578.857422 0)"/>
       <use xlink:href="#ArialMT-63" transform="translate(1606.640625 0)"/>
       <use xlink:href="#ArialMT-6f" transform="translate(1656.640625 0)"/>
       <use xlink:href="#ArialMT-6d" transform="translate(1712.255859 0)"/>
       <use xlink:href="#ArialMT-20" transform="translate(1795.556641 0)"/>
       <use xlink:href="#ArialMT-62" transform="translate(1823.339844 0)"/>
       <use xlink:href="#ArialMT-69" transform="translate(1878.955078 0)"/>
       <use xlink:href="#ArialMT-63" transform="translate(1901.171875 0)"/>
       <use xlink:href="#ArialMT-69" transform="translate(1951.171875 0)"/>
       <use xlink:href="#ArialMT-63" transform="translate(1973.388672 0)"/>
       <use xlink:href="#ArialMT-6c" transform="translate(2023.388672 0)"/>
       <use xlink:href="#ArialMT-65" transform="translate(2045.605469 0)"/>
       <use xlink:href="#ArialMT-74" transform="translate(2101.220703 0)"/>
       <use xlink:href="#ArialMT-61" transform="translate(2129.003906 0)"/>
      </g>
     </g>
    </g>
    <g id="ytick_8">
     <g id="line2d_14">
      <path d="M 359.06 278.13 
L 707.04 278.13 
" clip-path="url(#p470759c901)" style="fill: none; stroke: #cccccc; stroke-linecap: round"/>
     </g>
     <g id="text_15">
      <!-- categorical__tipo_acidente_Incêndio -->
      <g style="fill: #262626" transform="translate(170.995625 282.088281) scale(0.11 -0.11)">
       <defs>
        <path id="ArialMT-ea" d="M 2694 1069 
L 3275 997 
Q 3138 488 2766 206 
Q 2394 -75 1816 -75 
Q 1088 -75 661 373 
Q 234 822 234 1631 
Q 234 2469 665 2931 
Q 1097 3394 1784 3394 
Q 2450 3394 2872 2941 
Q 3294 2488 3294 1666 
Q 3294 1616 3291 1516 
L 816 1516 
Q 847 969 1125 678 
Q 1403 388 1819 388 
Q 2128 388 2347 550 
Q 2566 713 2694 1069 
z
M 847 1978 
L 2700 1978 
Q 2663 2397 2488 2606 
Q 2219 2931 1791 2931 
Q 1403 2931 1139 2672 
Q 875 2413 847 1978 
z
M 1771 4263 
L 1418 3731 
L 774 3731 
L 1449 4606 
L 2049 4606 
L 2752 3731 
L 2115 3731 
L 1771 4263 
z
" transform="scale(0.015625)"/>
       </defs>
       <use xlink:href="#ArialMT-63"/>
       <use xlink:href="#ArialMT-61" transform="translate(50 0)"/>
       <use xlink:href="#ArialMT-74" transform="translate(105.615234 0)"/>
       <use xlink:href="#ArialMT-65" transform="translate(133.398438 0)"/>
       <use xlink:href="#ArialMT-67" transform="translate(189.013672 0)"/>
       <use xlink:href="#ArialMT-6f" transform="translate(244.628906 0)"/>
       <use xlink:href="#ArialMT-72" transform="translate(300.244141 0)"/>
       <use xlink:href="#ArialMT-69" transform="translate(333.544922 0)"/>
       <use xlink:href="#ArialMT-63" transform="translate(355.761719 0)"/>
       <use xlink:href="#ArialMT-61" transform="translate(405.761719 0)"/>
       <use xlink:href="#ArialMT-6c" transform="translate(461.376953 0)"/>
       <use xlink:href="#ArialMT-5f" transform="translate(483.59375 0)"/>
       <use xlink:href="#ArialMT-5f" transform="translate(539.208984 0)"/>
       <use xlink:href="#ArialMT-74" transform="translate(594.824219 0)"/>
       <use xlink:href="#ArialMT-69" transform="translate(622.607422 0)"/>
       <use xlink:href="#ArialMT-70" transform="translate(644.824219 0)"/>
       <use xlink:href="#ArialMT-6f" transform="translate(700.439453 0)"/>
       <use xlink:href="#ArialMT-5f" transform="translate(756.054688 0)"/>
       <use xlink:href="#ArialMT-61" transform="translate(811.669922 0)"/>
       <use xlink:href="#ArialMT-63" transform="translate(867.285156 0)"/>
       <use xlink:href="#ArialMT-69" transform="translate(917.285156 0)"/>
       <use xlink:href="#ArialMT-64" transform="translate(939.501953 0)"/>
       <use xlink:href="#ArialMT-65" transform="translate(995.117188 0)"/>
       <use xlink:href="#ArialMT-6e" transform="translate(1050.732422 0)"/>
       <use xlink:href="#ArialMT-74" transform="translate(1106.347656 0)"/>
       <use xlink:href="#ArialMT-65" transform="translate(1134.130859 0)"/>
       <use xlink:href="#ArialMT-5f" transform="translate(1189.746094 0)"/>
       <use xlink:href="#ArialMT-49" transform="translate(1245.361328 0)"/>
       <use xlink:href="#ArialMT-6e" transform="translate(1273.144531 0)"/>
       <use xlink:href="#ArialMT-63" transform="translate(1328.759766 0)"/>
       <use xlink:href="#ArialMT-ea" transform="translate(1378.759766 0)"/>
       <use xlink:href="#ArialMT-6e" transform="translate(1434.375 0)"/>
       <use xlink:href="#ArialMT-64" transform="translate(1489.990234 0)"/>
       <use xlink:href="#ArialMT-69" transform="translate(1545.605469 0)"/>
       <use xlink:href="#ArialMT-6f" transform="translate(1567.822266 0)"/>
      </g>
     </g>
    </g>
    <g id="ytick_9">
     <g id="line2d_15">
      <path d="M 359.06 247.359269 
L 707.04 247.359269 
" clip-path="url(#p470759c901)" style="fill: none; stroke: #cccccc; stroke-linecap: round"/>
     </g>
     <g id="text_16">
      <!-- categorical__tipo_acidente_Colisão frontal -->
      <g style="fill: #262626" transform="translate(142.271875 251.363097) scale(0.11 -0.11)">
       <use xlink:href="#ArialMT-63"/>
       <use xlink:href="#ArialMT-61" transform="translate(50 0)"/>
       <use xlink:href="#ArialMT-74" transform="translate(105.615234 0)"/>
       <use xlink:href="#ArialMT-65" transform="translate(133.398438 0)"/>
       <use xlink:href="#ArialMT-67" transform="translate(189.013672 0)"/>
       <use xlink:href="#ArialMT-6f" transform="translate(244.628906 0)"/>
       <use xlink:href="#ArialMT-72" transform="translate(300.244141 0)"/>
       <use xlink:href="#ArialMT-69" transform="translate(333.544922 0)"/>
       <use xlink:href="#ArialMT-63" transform="translate(355.761719 0)"/>
       <use xlink:href="#ArialMT-61" transform="translate(405.761719 0)"/>
       <use xlink:href="#ArialMT-6c" transform="translate(461.376953 0)"/>
       <use xlink:href="#ArialMT-5f" transform="translate(483.59375 0)"/>
       <use xlink:href="#ArialMT-5f" transform="translate(539.208984 0)"/>
       <use xlink:href="#ArialMT-74" transform="translate(594.824219 0)"/>
       <use xlink:href="#ArialMT-69" transform="translate(622.607422 0)"/>
       <use xlink:href="#ArialMT-70" transform="translate(644.824219 0)"/>
       <use xlink:href="#ArialMT-6f" transform="translate(700.439453 0)"/>
       <use xlink:href="#ArialMT-5f" transform="translate(756.054688 0)"/>
       <use xlink:href="#ArialMT-61" transform="translate(811.669922 0)"/>
       <use xlink:href="#ArialMT-63" transform="translate(867.285156 0)"/>
       <use xlink:href="#ArialMT-69" transform="translate(917.285156 0)"/>
       <use xlink:href="#ArialMT-64" transform="translate(939.501953 0)"/>
       <use xlink:href="#ArialMT-65" transform="translate(995.117188 0)"/>
       <use xlink:href="#ArialMT-6e" transform="translate(1050.732422 0)"/>
       <use xlink:href="#ArialMT-74" transform="translate(1106.347656 0)"/>
       <use xlink:href="#ArialMT-65" transform="translate(1134.130859 0)"/>
       <use xlink:href="#ArialMT-5f" transform="translate(1189.746094 0)"/>
       <use xlink:href="#ArialMT-43" transform="translate(1245.361328 0)"/>
       <use xlink:href="#ArialMT-6f" transform="translate(1317.578125 0)"/>
       <use xlink:href="#ArialMT-6c" transform="translate(1373.193359 0)"/>
       <use xlink:href="#ArialMT-69" transform="translate(1395.410156 0)"/>
       <use xlink:href="#ArialMT-73" transform="translate(1417.626953 0)"/>
       <use xlink:href="#ArialMT-e3" transform="translate(1467.626953 0)"/>
       <use xlink:href="#ArialMT-6f" transform="translate(1523.242188 0)"/>
       <use xlink:href="#ArialMT-20" transform="translate(1578.857422 0)"/>
       <use xlink:href="#ArialMT-66" transform="translate(1606.640625 0)"/>
       <use xlink:href="#ArialMT-72" transform="translate(1634.423828 0)"/>
       <use xlink:href="#ArialMT-6f" transform="translate(1667.724609 0)"/>
       <use xlink:href="#ArialMT-6e" transform="translate(1723.339844 0)"/>
       <use xlink:href="#ArialMT-74" transform="translate(1778.955078 0)"/>
       <use xlink:href="#ArialMT-61" transform="translate(1806.738281 0)"/>
       <use xlink:href="#ArialMT-6c" transform="translate(1862.353516 0)"/>
      </g>
     </g>
    </g>
    <g id="ytick_10">
     <g id="line2d_16">
      <path d="M 359.06 216.588538 
L 707.04 216.588538 
" clip-path="url(#p470759c901)" style="fill: none; stroke: #cccccc; stroke-linecap: round"/>
     </g>
     <g id="text_17">
      <!-- categorical__tipo_acidente_Queda de motocicleta / bicicleta / veículo -->
      <g style="fill: #262626" transform="translate(12.654063 220.595804) scale(0.11 -0.11)">
       <defs>
        <path id="ArialMT-2f" d="M 0 -78 
L 1328 4659 
L 1778 4659 
L 453 -78 
L 0 -78 
z
" transform="scale(0.015625)"/>
       </defs>
       <use xlink:href="#ArialMT-63"/>
       <use xlink:href="#ArialMT-61" transform="translate(50 0)"/>
       <use xlink:href="#ArialMT-74" transform="translate(105.615234 0)"/>
       <use xlink:href="#ArialMT-65" transform="translate(133.398438 0)"/>
       <use xlink:href="#ArialMT-67" transform="translate(189.013672 0)"/>
       <use xlink:href="#ArialMT-6f" transform="translate(244.628906 0)"/>
       <use xlink:href="#ArialMT-72" transform="translate(300.244141 0)"/>
       <use xlink:href="#ArialMT-69" transform="translate(333.544922 0)"/>
       <use xlink:href="#ArialMT-63" transform="translate(355.761719 0)"/>
       <use xlink:href="#ArialMT-61" transform="translate(405.761719 0)"/>
       <use xlink:href="#ArialMT-6c" transform="translate(461.376953 0)"/>
       <use xlink:href="#ArialMT-5f" transform="translate(483.59375 0)"/>
       <use xlink:href="#ArialMT-5f" transform="translate(539.208984 0)"/>
       <use xlink:href="#ArialMT-74" transform="translate(594.824219 0)"/>
       <use xlink:href="#ArialMT-69" transform="translate(622.607422 0)"/>
       <use xlink:href="#ArialMT-70" transform="translate(644.824219 0)"/>
       <use xlink:href="#ArialMT-6f" transform="translate(700.439453 0)"/>
       <use xlink:href="#ArialMT-5f" transform="translate(756.054688 0)"/>
       <use xlink:href="#ArialMT-61" transform="translate(811.669922 0)"/>
       <use xlink:href="#ArialMT-63" transform="translate(867.285156 0)"/>
       <use xlink:href="#ArialMT-69" transform="translate(917.285156 0)"/>
       <use xlink:href="#ArialMT-64" transform="translate(939.501953 0)"/>
       <use xlink:href="#ArialMT-65" transform="translate(995.117188 0)"/>
       <use xlink:href="#ArialMT-6e" transform="translate(1050.732422 0)"/>
       <use xlink:href="#ArialMT-74" transform="translate(1106.347656 0)"/>
       <use xlink:href="#ArialMT-65" transform="translate(1134.130859 0)"/>
       <use xlink:href="#ArialMT-5f" transform="translate(1189.746094 0)"/>
       <use xlink:href="#ArialMT-51" transform="translate(1245.361328 0)"/>
       <use xlink:href="#ArialMT-75" transform="translate(1323.144531 0)"/>
       <use xlink:href="#ArialMT-65" transform="translate(1378.759766 0)"/>
       <use xlink:href="#ArialMT-64" transform="translate(1434.375 0)"/>
       <use xlink:href="#ArialMT-61" transform="translate(1489.990234 0)"/>
       <use xlink:href="#ArialMT-20" transform="translate(1545.605469 0)"/>
       <use xlink:href="#ArialMT-64" transform="translate(1573.388672 0)"/>
       <use xlink:href="#ArialMT-65" transform="translate(1629.003906 0)"/>
       <use xlink:href="#ArialMT-20" transform="translate(1684.619141 0)"/>
       <use xlink:href="#ArialMT-6d" transform="translate(1712.402344 0)"/>
       <use xlink:href="#ArialMT-6f" transform="translate(1795.703125 0)"/>
       <use xlink:href="#ArialMT-74" transform="translate(1851.318359 0)"/>
       <use xlink:href="#ArialMT-6f" transform="translate(1879.101562 0)"/>
       <use xlink:href="#ArialMT-63" transform="translate(1934.716797 0)"/>
       <use xlink:href="#ArialMT-69" transform="translate(1984.716797 0)"/>
       <use xlink:href="#ArialMT-63" transform="translate(2006.933594 0)"/>
       <use xlink:href="#ArialMT-6c" transform="translate(2056.933594 0)"/>
       <use xlink:href="#ArialMT-65" transform="translate(2079.150391 0)"/>
       <use xlink:href="#ArialMT-74" transform="translate(2134.765625 0)"/>
       <use xlink:href="#ArialMT-61" transform="translate(2162.548828 0)"/>
       <use xlink:href="#ArialMT-20" transform="translate(2218.164062 0)"/>
       <use xlink:href="#ArialMT-2f" transform="translate(2245.947266 0)"/>
       <use xlink:href="#ArialMT-20" transform="translate(2273.730469 0)"/>
       <use xlink:href="#ArialMT-62" transform="translate(2301.513672 0)"/>
       <use xlink:href="#ArialMT-69" transform="translate(2357.128906 0)"/>
       <use xlink:href="#ArialMT-63" transform="translate(2379.345703 0)"/>
       <use xlink:href="#ArialMT-69" transform="translate(2429.345703 0)"/>
       <use xlink:href="#ArialMT-63" transform="translate(2451.5625 0)"/>
       <use xlink:href="#ArialMT-6c" transform="translate(2501.5625 0)"/>
       <use xlink:href="#ArialMT-65" transform="translate(2523.779297 0)"/>
       <use xlink:href="#ArialMT-74" transform="translate(2579.394531 0)"/>
       <use xlink:href="#ArialMT-61" transform="translate(2607.177734 0)"/>
       <use xlink:href="#ArialMT-20" transform="translate(2662.792969 0)"/>
       <use xlink:href="#ArialMT-2f" transform="translate(2690.576172 0)"/>
       <use xlink:href="#ArialMT-20" transform="translate(2718.359375 0)"/>
       <use xlink:href="#ArialMT-76" transform="translate(2746.142578 0)"/>
       <use xlink:href="#ArialMT-65" transform="translate(2796.142578 0)"/>
       <use xlink:href="#ArialMT-ed" transform="translate(2851.757812 0)"/>
       <use xlink:href="#ArialMT-63" transform="translate(2879.541016 0)"/>
       <use xlink:href="#ArialMT-75" transform="translate(2929.541016 0)"/>
       <use xlink:href="#ArialMT-6c" transform="translate(2985.15625 0)"/>
       <use xlink:href="#ArialMT-6f" transform="translate(3007.373047 0)"/>
      </g>
     </g>
    </g>
    <g id="ytick_11">
     <g id="line2d_17">
      <path d="M 359.06 185.817807 
L 707.04 185.817807 
" clip-path="url(#p470759c901)" style="fill: none; stroke: #cccccc; stroke-linecap: round"/>
     </g>
     <g id="text_18">
      <!-- categorical__tipo_acidente_Atropelamento de pessoa -->
      <g style="fill: #262626" transform="translate(87.228906 189.754604) scale(0.11 -0.11)">
       <use xlink:href="#ArialMT-63"/>
       <use xlink:href="#ArialMT-61" transform="translate(50 0)"/>
       <use xlink:href="#ArialMT-74" transform="translate(105.615234 0)"/>
       <use xlink:href="#ArialMT-65" transform="translate(133.398438 0)"/>
       <use xlink:href="#ArialMT-67" transform="translate(189.013672 0)"/>
       <use xlink:href="#ArialMT-6f" transform="translate(244.628906 0)"/>
       <use xlink:href="#ArialMT-72" transform="translate(300.244141 0)"/>
       <use xlink:href="#ArialMT-69" transform="translate(333.544922 0)"/>
       <use xlink:href="#ArialMT-63" transform="translate(355.761719 0)"/>
       <use xlink:href="#ArialMT-61" transform="translate(405.761719 0)"/>
       <use xlink:href="#ArialMT-6c" transform="translate(461.376953 0)"/>
       <use xlink:href="#ArialMT-5f" transform="translate(483.59375 0)"/>
       <use xlink:href="#ArialMT-5f" transform="translate(539.208984 0)"/>
       <use xlink:href="#ArialMT-74" transform="translate(594.824219 0)"/>
       <use xlink:href="#ArialMT-69" transform="translate(622.607422 0)"/>
       <use xlink:href="#ArialMT-70" transform="translate(644.824219 0)"/>
       <use xlink:href="#ArialMT-6f" transform="translate(700.439453 0)"/>
       <use xlink:href="#ArialMT-5f" transform="translate(756.054688 0)"/>
       <use xlink:href="#ArialMT-61" transform="translate(811.669922 0)"/>
       <use xlink:href="#ArialMT-63" transform="translate(867.285156 0)"/>
       <use xlink:href="#ArialMT-69" transform="translate(917.285156 0)"/>
       <use xlink:href="#ArialMT-64" transform="translate(939.501953 0)"/>
       <use xlink:href="#ArialMT-65" transform="translate(995.117188 0)"/>
       <use xlink:href="#ArialMT-6e" transform="translate(1050.732422 0)"/>
       <use xlink:href="#ArialMT-74" transform="translate(1106.347656 0)"/>
       <use xlink:href="#ArialMT-65" transform="translate(1134.130859 0)"/>
       <use xlink:href="#ArialMT-5f" transform="translate(1189.746094 0)"/>
       <use xlink:href="#ArialMT-41" transform="translate(1245.361328 0)"/>
       <use xlink:href="#ArialMT-74" transform="translate(1312.060547 0)"/>
       <use xlink:href="#ArialMT-72" transform="translate(1339.84375 0)"/>
       <use xlink:href="#ArialMT-6f" transform="translate(1373.144531 0)"/>
       <use xlink:href="#ArialMT-70" transform="translate(1428.759766 0)"/>
       <use xlink:href="#ArialMT-65" transform="translate(1484.375 0)"/>
       <use xlink:href="#ArialMT-6c" transform="translate(1539.990234 0)"/>
       <use xlink:href="#ArialMT-61" transform="translate(1562.207031 0)"/>
       <use xlink:href="#ArialMT-6d" transform="translate(1617.822266 0)"/>
       <use xlink:href="#ArialMT-65" transform="translate(1701.123047 0)"/>
       <use xlink:href="#ArialMT-6e" transform="translate(1756.738281 0)"/>
       <use xlink:href="#ArialMT-74" transform="translate(1812.353516 0)"/>
       <use xlink:href="#ArialMT-6f" transform="translate(1840.136719 0)"/>
       <use xlink:href="#ArialMT-20" transform="translate(1895.751953 0)"/>
       <use xlink:href="#ArialMT-64" transform="translate(1923.535156 0)"/>
       <use xlink:href="#ArialMT-65" transform="translate(1979.150391 0)"/>
       <use xlink:href="#ArialMT-20" transform="translate(2034.765625 0)"/>
       <use xlink:href="#ArialMT-70" transform="translate(2062.548828 0)"/>
       <use xlink:href="#ArialMT-65" transform="translate(2118.164062 0)"/>
       <use xlink:href="#ArialMT-73" transform="translate(2173.779297 0)"/>
       <use xlink:href="#ArialMT-73" transform="translate(2223.779297 0)"/>
       <use xlink:href="#ArialMT-6f" transform="translate(2273.779297 0)"/>
       <use xlink:href="#ArialMT-61" transform="translate(2329.394531 0)"/>
      </g>
     </g>
    </g>
    <g id="ytick_12">
     <g id="line2d_18">
      <path d="M 359.06 155.047076 
L 707.04 155.047076 
" clip-path="url(#p470759c901)" style="fill: none; stroke: #cccccc; stroke-linecap: round"/>
     </g>
     <g id="text_19">
      <!-- categorical__tipo_acidente_Colisão traseira -->
      <g style="fill: #262626" transform="translate(136.165156 159.050904) scale(0.11 -0.11)">
       <use xlink:href="#ArialMT-63"/>
       <use xlink:href="#ArialMT-61" transform="translate(50 0)"/>
       <use xlink:href="#ArialMT-74" transform="translate(105.615234 0)"/>
       <use xlink:href="#ArialMT-65" transform="translate(133.398438 0)"/>
       <use xlink:href="#ArialMT-67" transform="translate(189.013672 0)"/>
       <use xlink:href="#ArialMT-6f" transform="translate(244.628906 0)"/>
       <use xlink:href="#ArialMT-72" transform="translate(300.244141 0)"/>
       <use xlink:href="#ArialMT-69" transform="translate(333.544922 0)"/>
       <use xlink:href="#ArialMT-63" transform="translate(355.761719 0)"/>
       <use xlink:href="#ArialMT-61" transform="translate(405.761719 0)"/>
       <use xlink:href="#ArialMT-6c" transform="translate(461.376953 0)"/>
       <use xlink:href="#ArialMT-5f" transform="translate(483.59375 0)"/>
       <use xlink:href="#ArialMT-5f" transform="translate(539.208984 0)"/>
       <use xlink:href="#ArialMT-74" transform="translate(594.824219 0)"/>
       <use xlink:href="#ArialMT-69" transform="translate(622.607422 0)"/>
       <use xlink:href="#ArialMT-70" transform="translate(644.824219 0)"/>
       <use xlink:href="#ArialMT-6f" transform="translate(700.439453 0)"/>
       <use xlink:href="#ArialMT-5f" transform="translate(756.054688 0)"/>
       <use xlink:href="#ArialMT-61" transform="translate(811.669922 0)"/>
       <use xlink:href="#ArialMT-63" transform="translate(867.285156 0)"/>
       <use xlink:href="#ArialMT-69" transform="translate(917.285156 0)"/>
       <use xlink:href="#ArialMT-64" transform="translate(939.501953 0)"/>
       <use xlink:href="#ArialMT-65" transform="translate(995.117188 0)"/>
       <use xlink:href="#ArialMT-6e" transform="translate(1050.732422 0)"/>
       <use xlink:href="#ArialMT-74" transform="translate(1106.347656 0)"/>
       <use xlink:href="#ArialMT-65" transform="translate(1134.130859 0)"/>
       <use xlink:href="#ArialMT-5f" transform="translate(1189.746094 0)"/>
       <use xlink:href="#ArialMT-43" transform="translate(1245.361328 0)"/>
       <use xlink:href="#ArialMT-6f" transform="translate(1317.578125 0)"/>
       <use xlink:href="#ArialMT-6c" transform="translate(1373.193359 0)"/>
       <use xlink:href="#ArialMT-69" transform="translate(1395.410156 0)"/>
       <use xlink:href="#ArialMT-73" transform="translate(1417.626953 0)"/>
       <use xlink:href="#ArialMT-e3" transform="translate(1467.626953 0)"/>
       <use xlink:href="#ArialMT-6f" transform="translate(1523.242188 0)"/>
       <use xlink:href="#ArialMT-20" transform="translate(1578.857422 0)"/>
       <use xlink:href="#ArialMT-74" transform="translate(1606.640625 0)"/>
       <use xlink:href="#ArialMT-72" transform="translate(1634.423828 0)"/>
       <use xlink:href="#ArialMT-61" transform="translate(1667.724609 0)"/>
       <use xlink:href="#ArialMT-73" transform="translate(1723.339844 0)"/>
       <use xlink:href="#ArialMT-65" transform="translate(1773.339844 0)"/>
       <use xlink:href="#ArialMT-69" transform="translate(1828.955078 0)"/>
       <use xlink:href="#ArialMT-72" transform="translate(1851.171875 0)"/>
       <use xlink:href="#ArialMT-61" transform="translate(1884.472656 0)"/>
      </g>
     </g>
    </g>
    <g id="ytick_13">
     <g id="line2d_19">
      <path d="M 359.06 124.276345 
L 707.04 124.276345 
" clip-path="url(#p470759c901)" style="fill: none; stroke: #cccccc; stroke-linecap: round"/>
     </g>
     <g id="text_20">
      <!-- categorical__uso_solo_Sim -->
      <g style="fill: #262626" transform="translate(215.04375 128.280173) scale(0.11 -0.11)">
       <defs>
        <path id="ArialMT-53" d="M 288 1472 
L 859 1522 
Q 900 1178 1048 958 
Q 1197 738 1509 602 
Q 1822 466 2213 466 
Q 2559 466 2825 569 
Q 3091 672 3220 851 
Q 3350 1031 3350 1244 
Q 3350 1459 3225 1620 
Q 3100 1781 2813 1891 
Q 2628 1963 1997 2114 
Q 1366 2266 1113 2400 
Q 784 2572 623 2826 
Q 463 3081 463 3397 
Q 463 3744 659 4045 
Q 856 4347 1234 4503 
Q 1613 4659 2075 4659 
Q 2584 4659 2973 4495 
Q 3363 4331 3572 4012 
Q 3781 3694 3797 3291 
L 3216 3247 
Q 3169 3681 2898 3903 
Q 2628 4125 2100 4125 
Q 1550 4125 1298 3923 
Q 1047 3722 1047 3438 
Q 1047 3191 1225 3031 
Q 1400 2872 2139 2705 
Q 2878 2538 3153 2413 
Q 3553 2228 3743 1945 
Q 3934 1663 3934 1294 
Q 3934 928 3725 604 
Q 3516 281 3123 101 
Q 2731 -78 2241 -78 
Q 1619 -78 1198 103 
Q 778 284 539 648 
Q 300 1013 288 1472 
z
" transform="scale(0.015625)"/>
       </defs>
       <use xlink:href="#ArialMT-63"/>
       <use xlink:href="#ArialMT-61" transform="translate(50 0)"/>
       <use xlink:href="#ArialMT-74" transform="translate(105.615234 0)"/>
       <use xlink:href="#ArialMT-65" transform="translate(133.398438 0)"/>
       <use xlink:href="#ArialMT-67" transform="translate(189.013672 0)"/>
       <use xlink:href="#ArialMT-6f" transform="translate(244.628906 0)"/>
       <use xlink:href="#ArialMT-72" transform="translate(300.244141 0)"/>
       <use xlink:href="#ArialMT-69" transform="translate(333.544922 0)"/>
       <use xlink:href="#ArialMT-63" transform="translate(355.761719 0)"/>
       <use xlink:href="#ArialMT-61" transform="translate(405.761719 0)"/>
       <use xlink:href="#ArialMT-6c" transform="translate(461.376953 0)"/>
       <use xlink:href="#ArialMT-5f" transform="translate(483.59375 0)"/>
       <use xlink:href="#ArialMT-5f" transform="translate(539.208984 0)"/>
       <use xlink:href="#ArialMT-75" transform="translate(594.824219 0)"/>
       <use xlink:href="#ArialMT-73" transform="translate(650.439453 0)"/>
       <use xlink:href="#ArialMT-6f" transform="translate(700.439453 0)"/>
       <use xlink:href="#ArialMT-5f" transform="translate(756.054688 0)"/>
       <use xlink:href="#ArialMT-73" transform="translate(811.669922 0)"/>
       <use xlink:href="#ArialMT-6f" transform="translate(861.669922 0)"/>
       <use xlink:href="#ArialMT-6c" transform="translate(917.285156 0)"/>
       <use xlink:href="#ArialMT-6f" transform="translate(939.501953 0)"/>
       <use xlink:href="#ArialMT-5f" transform="translate(995.117188 0)"/>
       <use xlink:href="#ArialMT-53" transform="translate(1050.732422 0)"/>
       <use xlink:href="#ArialMT-69" transform="translate(1117.431641 0)"/>
       <use xlink:href="#ArialMT-6d" transform="translate(1139.648438 0)"/>
      </g>
     </g>
    </g>
    <g id="ytick_14">
     <g id="line2d_20">
      <path d="M 359.06 93.505614 
L 707.04 93.505614 
" clip-path="url(#p470759c901)" style="fill: none; stroke: #cccccc; stroke-linecap: round"/>
     </g>
     <g id="text_21">
      <!-- categorical__uso_solo_Não -->
      <g style="fill: #262626" transform="translate(213.809688 97.442411) scale(0.11 -0.11)">
       <use xlink:href="#ArialMT-63"/>
       <use xlink:href="#ArialMT-61" transform="translate(50 0)"/>
       <use xlink:href="#ArialMT-74" transform="translate(105.615234 0)"/>
       <use xlink:href="#ArialMT-65" transform="translate(133.398438 0)"/>
       <use xlink:href="#ArialMT-67" transform="translate(189.013672 0)"/>
       <use xlink:href="#ArialMT-6f" transform="translate(244.628906 0)"/>
       <use xlink:href="#ArialMT-72" transform="translate(300.244141 0)"/>
       <use xlink:href="#ArialMT-69" transform="translate(333.544922 0)"/>
       <use xlink:href="#ArialMT-63" transform="translate(355.761719 0)"/>
       <use xlink:href="#ArialMT-61" transform="translate(405.761719 0)"/>
       <use xlink:href="#ArialMT-6c" transform="translate(461.376953 0)"/>
       <use xlink:href="#ArialMT-5f" transform="translate(483.59375 0)"/>
       <use xlink:href="#ArialMT-5f" transform="translate(539.208984 0)"/>
       <use xlink:href="#ArialMT-75" transform="translate(594.824219 0)"/>
       <use xlink:href="#ArialMT-73" transform="translate(650.439453 0)"/>
       <use xlink:href="#ArialMT-6f" transform="translate(700.439453 0)"/>
       <use xlink:href="#ArialMT-5f" transform="translate(756.054688 0)"/>
       <use xlink:href="#ArialMT-73" transform="translate(811.669922 0)"/>
       <use xlink:href="#ArialMT-6f" transform="translate(861.669922 0)"/>
       <use xlink:href="#ArialMT-6c" transform="translate(917.285156 0)"/>
       <use xlink:href="#ArialMT-6f" transform="translate(939.501953 0)"/>
       <use xlink:href="#ArialMT-5f" transform="translate(995.117188 0)"/>
       <use xlink:href="#ArialMT-4e" transform="translate(1050.732422 0)"/>
       <use xlink:href="#ArialMT-e3" transform="translate(1122.949219 0)"/>
       <use xlink:href="#ArialMT-6f" transform="translate(1178.564453 0)"/>
      </g>
     </g>
    </g>
    <g id="ytick_15">
     <g id="line2d_21">
      <path d="M 359.06 62.734883 
L 707.04 62.734883 
" clip-path="url(#p470759c901)" style="fill: none; stroke: #cccccc; stroke-linecap: round"/>
     </g>
     <g id="text_22">
      <!-- categorical__condicao_metereologica_Céu Claro -->
      <g style="fill: #262626" transform="translate(109.263281 66.738711) scale(0.11 -0.11)">
       <defs>
        <path id="ArialMT-e9" d="M 2694 1069 
L 3275 997 
Q 3138 488 2766 206 
Q 2394 -75 1816 -75 
Q 1088 -75 661 373 
Q 234 822 234 1631 
Q 234 2469 665 2931 
Q 1097 3394 1784 3394 
Q 2450 3394 2872 2941 
Q 3294 2488 3294 1666 
Q 3294 1616 3291 1516 
L 816 1516 
Q 847 969 1125 678 
Q 1403 388 1819 388 
Q 2128 388 2347 550 
Q 2566 713 2694 1069 
z
M 847 1978 
L 2700 1978 
Q 2663 2397 2488 2606 
Q 2219 2931 1791 2931 
Q 1403 2931 1139 2672 
Q 875 2413 847 1978 
z
M 1454 3731 
L 1869 4606 
L 2607 4606 
L 1919 3731 
L 1454 3731 
z
" transform="scale(0.015625)"/>
       </defs>
       <use xlink:href="#ArialMT-63"/>
       <use xlink:href="#ArialMT-61" transform="translate(50 0)"/>
       <use xlink:href="#ArialMT-74" transform="translate(105.615234 0)"/>
       <use xlink:href="#ArialMT-65" transform="translate(133.398438 0)"/>
       <use xlink:href="#ArialMT-67" transform="translate(189.013672 0)"/>
       <use xlink:href="#ArialMT-6f" transform="translate(244.628906 0)"/>
       <use xlink:href="#ArialMT-72" transform="translate(300.244141 0)"/>
       <use xlink:href="#ArialMT-69" transform="translate(333.544922 0)"/>
       <use xlink:href="#ArialMT-63" transform="translate(355.761719 0)"/>
       <use xlink:href="#ArialMT-61" transform="translate(405.761719 0)"/>
       <use xlink:href="#ArialMT-6c" transform="translate(461.376953 0)"/>
       <use xlink:href="#ArialMT-5f" transform="translate(483.59375 0)"/>
       <use xlink:href="#ArialMT-5f" transform="translate(539.208984 0)"/>
       <use xlink:href="#ArialMT-63" transform="translate(594.824219 0)"/>
       <use xlink:href="#ArialMT-6f" transform="translate(644.824219 0)"/>
       <use xlink:href="#ArialMT-6e" transform="translate(700.439453 0)"/>
       <use xlink:href="#ArialMT-64" transform="translate(756.054688 0)"/>
       <use xlink:href="#ArialMT-69" transform="translate(811.669922 0)"/>
       <use xlink:href="#ArialMT-63" transform="translate(833.886719 0)"/>
       <use xlink:href="#ArialMT-61" transform="translate(883.886719 0)"/>
       <use xlink:href="#ArialMT-6f" transform="translate(939.501953 0)"/>
       <use xlink:href="#ArialMT-5f" transform="translate(995.117188 0)"/>
       <use xlink:href="#ArialMT-6d" transform="translate(1050.732422 0)"/>
       <use xlink:href="#ArialMT-65" transform="translate(1134.033203 0)"/>
       <use xlink:href="#ArialMT-74" transform="translate(1189.648438 0)"/>
       <use xlink:href="#ArialMT-65" transform="translate(1217.431641 0)"/>
       <use xlink:href="#ArialMT-72" transform="translate(1273.046875 0)"/>
       <use xlink:href="#ArialMT-65" transform="translate(1306.347656 0)"/>
       <use xlink:href="#ArialMT-6f" transform="translate(1361.962891 0)"/>
       <use xlink:href="#ArialMT-6c" transform="translate(1417.578125 0)"/>
       <use xlink:href="#ArialMT-6f" transform="translate(1439.794922 0)"/>
       <use xlink:href="#ArialMT-67" transform="translate(1495.410156 0)"/>
       <use xlink:href="#ArialMT-69" transform="translate(1551.025391 0)"/>
       <use xlink:href="#ArialMT-63" transform="translate(1573.242188 0)"/>
       <use xlink:href="#ArialMT-61" transform="translate(1623.242188 0)"/>
       <use xlink:href="#ArialMT-5f" transform="translate(1678.857422 0)"/>
       <use xlink:href="#ArialMT-43" transform="translate(1734.472656 0)"/>
       <use xlink:href="#ArialMT-e9" transform="translate(1806.689453 0)"/>
       <use xlink:href="#ArialMT-75" transform="translate(1862.304688 0)"/>
       <use xlink:href="#ArialMT-20" transform="translate(1917.919922 0)"/>
       <use xlink:href="#ArialMT-43" transform="translate(1945.703125 0)"/>
       <use xlink:href="#ArialMT-6c" transform="translate(2017.919922 0)"/>
       <use xlink:href="#ArialMT-61" transform="translate(2040.136719 0)"/>
       <use xlink:href="#ArialMT-72" transform="translate(2095.751953 0)"/>
       <use xlink:href="#ArialMT-6f" transform="translate(2129.052734 0)"/>
      </g>
     </g>
    </g>
   </g>
   <g id="patch_3">
    <path d="M 359.06 505.833409 
L 366.063169 505.833409 
L 366.063169 481.216824 
L 359.06 481.216824 
z
" clip-path="url(#p470759c901)" style="fill: #1f77b4; stroke: #ffffff; stroke-linejoin: miter"/>
   </g>
   <g id="patch_4">
    <path d="M 359.06 475.062678 
L 366.605832 475.062678 
L 366.605832 450.446093 
L 359.06 450.446093 
z
" clip-path="url(#p470759c901)" style="fill: #1f77b4; stroke: #ffffff; stroke-linejoin: miter"/>
   </g>
   <g id="patch_5">
    <path d="M 359.06 444.291947 
L 367.117756 444.291947 
L 367.117756 419.675362 
L 359.06 419.675362 
z
" clip-path="url(#p470759c901)" style="fill: #1f77b4; stroke: #ffffff; stroke-linejoin: miter"/>
   </g>
   <g id="patch_6">
    <path d="M 359.06 413.521216 
L 368.411629 413.521216 
L 368.411629 388.904631 
L 359.06 388.904631 
z
" clip-path="url(#p470759c901)" style="fill: #1f77b4; stroke: #ffffff; stroke-linejoin: miter"/>
   </g>
   <g id="patch_7">
    <path d="M 359.06 382.750485 
L 373.674996 382.750485 
L 373.674996 358.1339 
L 359.06 358.1339 
z
" clip-path="url(#p470759c901)" style="fill: #1f77b4; stroke: #ffffff; stroke-linejoin: miter"/>
   </g>
   <g id="patch_8">
    <path d="M 359.06 351.979754 
L 374.908935 351.979754 
L 374.908935 327.36317 
L 359.06 327.36317 
z
" clip-path="url(#p470759c901)" style="fill: #1f77b4; stroke: #ffffff; stroke-linejoin: miter"/>
   </g>
   <g id="patch_9">
    <path d="M 359.06 321.209023 
L 416.098244 321.209023 
L 416.098244 296.592439 
L 359.06 296.592439 
z
" clip-path="url(#p470759c901)" style="fill: #1f77b4; stroke: #ffffff; stroke-linejoin: miter"/>
   </g>
   <g id="patch_10">
    <path d="M 359.06 290.438292 
L 427.032038 290.438292 
L 427.032038 265.821708 
L 359.06 265.821708 
z
" clip-path="url(#p470759c901)" style="fill: #1f77b4; stroke: #ffffff; stroke-linejoin: miter"/>
   </g>
   <g id="patch_11">
    <path d="M 359.06 259.667561 
L 442.05016 259.667561 
L 442.05016 235.050977 
L 359.06 235.050977 
z
" clip-path="url(#p470759c901)" style="fill: #1f77b4; stroke: #ffffff; stroke-linejoin: miter"/>
   </g>
   <g id="patch_12">
    <path d="M 359.06 228.89683 
L 467.159541 228.89683 
L 467.159541 204.280246 
L 359.06 204.280246 
z
" clip-path="url(#p470759c901)" style="fill: #1f77b4; stroke: #ffffff; stroke-linejoin: miter"/>
   </g>
   <g id="patch_13">
    <path d="M 359.06 198.1261 
L 469.143514 198.1261 
L 469.143514 173.509515 
L 359.06 173.509515 
z
" clip-path="url(#p470759c901)" style="fill: #1f77b4; stroke: #ffffff; stroke-linejoin: miter"/>
   </g>
   <g id="patch_14">
    <path d="M 359.06 167.355369 
L 495.22806 167.355369 
L 495.22806 142.738784 
L 359.06 142.738784 
z
" clip-path="url(#p470759c901)" style="fill: #1f77b4; stroke: #ffffff; stroke-linejoin: miter"/>
   </g>
   <g id="patch_15">
    <path d="M 359.06 136.584638 
L 502.622855 136.584638 
L 502.622855 111.968053 
L 359.06 111.968053 
z
" clip-path="url(#p470759c901)" style="fill: #1f77b4; stroke: #ffffff; stroke-linejoin: miter"/>
   </g>
   <g id="patch_16">
    <path d="M 359.06 105.813907 
L 506.756849 105.813907 
L 506.756849 81.197322 
L 359.06 81.197322 
z
" clip-path="url(#p470759c901)" style="fill: #1f77b4; stroke: #ffffff; stroke-linejoin: miter"/>
   </g>
   <g id="patch_17">
    <path d="M 359.06 75.043176 
L 690.469524 75.043176 
L 690.469524 50.426591 
L 359.06 50.426591 
z
" clip-path="url(#p470759c901)" style="fill: #1f77b4; stroke: #ffffff; stroke-linejoin: miter"/>
   </g>
   <g id="patch_18">
    <path d="M 359.06 528.60375 
L 359.06 27.65625 
" style="fill: none; stroke: #cccccc; stroke-width: 1.25; stroke-linejoin: miter; stroke-linecap: square"/>
   </g>
   <g id="patch_19">
    <path d="M 707.04 528.60375 
L 707.04 27.65625 
" style="fill: none; stroke: #cccccc; stroke-width: 1.25; stroke-linejoin: miter; stroke-linecap: square"/>
   </g>
   <g id="patch_20">
    <path d="M 359.06 528.60375 
L 707.04 528.60375 
" style="fill: none; stroke: #cccccc; stroke-width: 1.25; stroke-linejoin: miter; stroke-linecap: square"/>
   </g>
   <g id="patch_21">
    <path d="M 359.06 27.65625 
L 707.04 27.65625 
" style="fill: none; stroke: #cccccc; stroke-width: 1.25; stroke-linejoin: miter; stroke-linecap: square"/>
   </g>
   <g id="text_23">
    <!-- 15 atributos mais importantes -->
    <g style="fill: #262626" transform="translate(454.3525 21.65625) scale(0.12 -0.12)">
     <use xlink:href="#ArialMT-31"/>
     <use xlink:href="#ArialMT-35" transform="translate(55.615234 0)"/>
     <use xlink:href="#ArialMT-20" transform="translate(111.230469 0)"/>
     <use xlink:href="#ArialMT-61" transform="translate(139.013672 0)"/>
     <use xlink:href="#ArialMT-74" transform="translate(194.628906 0)"/>
     <use xlink:href="#ArialMT-72" transform="translate(222.412109 0)"/>
     <use xlink:href="#ArialMT-69" transform="translate(255.712891 0)"/>
     <use xlink:href="#ArialMT-62" transform="translate(277.929688 0)"/>
     <use xlink:href="#ArialMT-75" transform="translate(333.544922 0)"/>
     <use xlink:href="#ArialMT-74" transform="translate(389.160156 0)"/>
     <use xlink:href="#ArialMT-6f" transform="translate(416.943359 0)"/>
     <use xlink:href="#ArialMT-73" transform="translate(472.558594 0)"/>
     <use xlink:href="#ArialMT-20" transform="translate(522.558594 0)"/>
     <use xlink:href="#ArialMT-6d" transform="translate(550.341797 0)"/>
     <use xlink:href="#ArialMT-61" transform="translate(633.642578 0)"/>
     <use xlink:href="#ArialMT-69" transform="translate(689.257812 0)"/>
     <use xlink:href="#ArialMT-73" transform="translate(711.474609 0)"/>
     <use xlink:href="#ArialMT-20" transform="translate(761.474609 0)"/>
     <use xlink:href="#ArialMT-69" transform="translate(789.257812 0)"/>
     <use xlink:href="#ArialMT-6d" transform="translate(811.474609 0)"/>
     <use xlink:href="#ArialMT-70" transform="translate(894.775391 0)"/>
     <use xlink:href="#ArialMT-6f" transform="translate(950.390625 0)"/>
     <use xlink:href="#ArialMT-72" transform="translate(1006.005859 0)"/>
     <use xlink:href="#ArialMT-74" transform="translate(1039.306641 0)"/>
     <use xlink:href="#ArialMT-61" transform="translate(1067.089844 0)"/>
     <use xlink:href="#ArialMT-6e" transform="translate(1122.705078 0)"/>
     <use xlink:href="#ArialMT-74" transform="translate(1178.320312 0)"/>
     <use xlink:href="#ArialMT-65" transform="translate(1206.103516 0)"/>
     <use xlink:href="#ArialMT-73" transform="translate(1261.71875 0)"/>
    </g>
   </g>
  </g>
 </g>
 <defs>
  <clipPath id="p470759c901">
   <rect x="359.06" y="27.65625" width="347.98" height="500.9475"/>
  </clipPath>
 </defs>
</svg>
